/* XPM */
static char *ddb92749b6c04844b3f3017100bfbcdaNPOwEhyhTD22k6yY[] = {
/* columns rows colors chars-per-pixel */
"60 60 105 2 ",
"   c #000203",
".  c #0A0000",
"X  c #040B0D",
"o  c #1C0000",
"O  c #180E0D",
"+  c #1A1003",
"@  c #000011",
"#  c #0B0012",
"$  c #170210",
"%  c #1A001B",
"&  c #1F1411",
"*  c #240000",
"=  c #330600",
"-  c #3E0607",
";  c #340B01",
":  c #3D0C09",
">  c #2C140E",
",  c #2C1A0C",
"<  c #381503",
"1  c #37160F",
"2  c #38160F",
"3  c #211513",
"4  c #2C1511",
"5  c #2D1B17",
"6  c #2E1C19",
"7  c #381610",
"8  c #3A1B15",
"9  c #2D201D",
"0  c #32221E",
"q  c #1E0022",
"w  c #210025",
"e  c #300424",
"r  c #27142C",
"t  c #2B1B2C",
"y  c #331D28",
"u  c #391B2D",
"i  c #2B0034",
"p  c #2E0A35",
"a  c #2C1332",
"s  c #2D1836",
"d  c #33173E",
"f  c #331B3B",
"g  c #342023",
"h  c #342028",
"j  c #39252B",
"k  c #3D2E2A",
"l  c #342233",
"z  c #35233C",
"x  c #382438",
"c  c #400705",
"v  c #44361A",
"b  c #46391B",
"n  c #4A3C1E",
"m  c #462C25",
"M  c #4A2E25",
"N  c #472D28",
"B  c #4A2F28",
"V  c #423725",
"C  c #4D3125",
"Z  c #4C3029",
"A  c #4E3A29",
"S  c #50352D",
"D  c #412A37",
"F  c #432C38",
"G  c #4C4727",
"H  c #4D442B",
"J  c #544624",
"K  c #53452C",
"L  c #54492D",
"P  c #56512D",
"I  c #59542F",
"U  c #5A5232",
"Y  c #3A2644",
"T  c #3C2945",
"R  c #3F3249",
"E  c #463D51",
"W  c #4B4557",
"Q  c #575765",
"!  c #5E5B62",
"~  c #5A5C69",
"^  c #616671",
"/  c #636975",
"(  c #6E7278",
")  c #747776",
"_  c #787C7A",
"`  c #707A83",
"'  c #79848C",
"]  c #7D8A92",
"[  c #869396",
"{  c #8A9495",
"}  c #8C9A9D",
"|  c #8D9FA5",
" . c #8FA0A7",
".. c #94A7AD",
"X. c #97A9AB",
"o. c #9BACAE",
"O. c #A3A0A6",
"+. c #A1B5B7",
"@. c #A6BCBF",
"#. c #B4B2B6",
"$. c #A9BFC2",
"%. c #ABC2C5",
"&. c #AEC6C9",
"*. c #B1CACD",
"=. c gray92",
/* pixels */
"T Y Y W ~ ^ / / / / / / / / / / / / / / / / / / / / / / / / / / / / / / / / / / / / / / / / / / / / / / / / / / ^ Q E z ",
"T a Y } &.+.X.o.o.o.o.o.o.o.o.o.o.o.o.o.o.o.o.o.o.o.o.o.o.o.o.o.o.o.o.o.o.o.o.o.o.o.o.o.o.o.o.o.o.o.o.o.o.o.o.X.%.%.' q ",
"T a z  .$.) * 0 0 9 9 6 9 9 9 9 9 9 9 9 9 9 9 9 9 0 9 9 9 9 0 9 9 9 9 9 9 9 9 9 9 9 0 9 9 9 9 9 9 9 9 9 9 0 6 = { %.' q ",
"T a z  .$.) o   . 4 4 > 4 4 4 1 > $ $ 4 > 4 4 5 4 > 4 > > $ $ 4 4 4 4 4 4 > 4 > > $ $ 4 4 4 4 4 4 4 4 5 >     ; { %.' q ",
"T a z  .$.) * X 0 S S S S S S S Z j j S S S Z Z S S S Z Z j j S Z S S S S Z Z A Z j j S S S S Z S Z S S M &   8 { %.' q ",
"T a z  .%.) *   5 B B B N M M Z N h h N Z N Z N N N B Z N h h N Z N B B B B B Z N h h N Z N N B B B B N Z G v : { %.' q ",
"T s z  .%.) *   6 B B B M B B Z N h h N Z Z N N Z B Z Z N h h N Z B B B B B Z Z N h h N Z B Z B B B B N Z U J c [ %.' q ",
"T a z  .$._ *   6 B Z B B B B Z N h h N Z N Z Z N Z B Z B h h N Z Z B Z B B N Z B h h N B B B B B B Z B Z H b : { %.' q ",
"T r f | $.) *   6 B Z B B B Z Z B h h N Z Z Z N Z N N Z N h h N Z Z N N Z M Z Z N h h N Z Z Z N B B B Z m &   2 { %.' q ",
"E p z  .%.) *   6 Z Z Z B B B Z N h h N Z Z N Z Z Z Z Z N h h B Z N Z Z N C N Z B h h N Z N Z Z B B B S m &   2 { %.' q ",
"T a z  .$.) *   6 B Z B C B B Z N y g N Z N Z B N B Z Z N h h N Z Z Z N C Z B Z N h h N Z N Z N Z B B Z m 3   2 { &.' q ",
"T a z  .$._ *   6 B Z B B B B Z B h g N Z Z N Z Z B N Z N h h B Z N Z Z N B B Z B h g N Z Z M Z B B B Z m 3   2 { %.' q ",
"E p z  .$.) * X 6 B B B B B B Z B h h N Z M B B B B B B B h h B Z M B N Z B B Z N h h N Z B B N B B Z Z N &   2 { %.' q ",
"Y r z  .%.) *   6 B S Z B B B Z N h y B Z B B B B Z B Z N h y N Z Z B Z B B B Z B y h B Z B B Z B Z Z Z N &   2 { %.' q ",
"T a z  .$.) *   6 B B B B B B Z N h h B Z B B B Z M B Z B h h B Z N Z B B B B Z N h h N Z M Z B B Z B Z m &   2 { &.' q ",
"T a z  .%.) *   5 B B B B B B Z B h h N Z Z B Z B B M Z N h h N Z Z N B M Z M Z B h y B Z B B B B B B Z m &   2 { %.' q ",
"T a z  .%.) *   6 B Z B B B B C N h h B Z B B Z B B N Z N h h M C N Z C N C Z Z N h h N Z M B B B B B B m &   2 { %.' q ",
"T a z | $._ *   5 Z Z B B Z B Z B y h N Z B B B B B Z Z N h h N Z Z N Z Z N B Z N g h N Z B Z B B B B S m &   2 { %.' q ",
"T a z | %.) *   5 B Z B B B B Z B h h N Z M B B Z B Z Z N h h N Z N Z N N N B Z B h h N Z B B Z Z B B Z m &   2 { &.' q ",
"E a z ..$.) *   6 Z Z B Z B B Z N h y B Z B Z B M B N Z B h h B Z M Z Z Z C B Z N h h N Z B B B B B B B m &   2 { %.' q ",
"Y a z  .$.) *   5 Z Z B B B B Z N h h B B B B Z B Z M Z N h h B Z Z N N N Z M Z B y h B B B Z M B B B S m &   2 { %.' q ",
"Y p z  .%.) * X 5 B Z B B B B C B h h N Z B B B B B B Z N h y N Z N Z Z Z N Z Z N h h N Z B B B Z B B B m &   1 { &.' q ",
"T a z  .%.) *   6 B Z B B Z B Z N h h B Z M B Z B Z B Z B h h B Z Z N C Z N N Z B h h N Z B B B B B B Z M &   7 { %.' q ",
"T a z  .$.) *   6 Z Z B B B B Z B y h N Z B B B B B B B N h h N Z N Z N C Z Z Z N h h B Z B Z B B B B S N &   7 { %.' q ",
"T a z  .$.) *   5 Z Z B B B B Z B h h N Z B Z B B Z B Z N h h N Z Z B N Z N N Z B h y N Z Z M Z B B M Z m 3   2 { &.' q ",
"E a z  .$.) *   6 B Z B B B B Z N h h N Z Z N M B B B Z M h h N Z N B Z Z Z Z Z B h h N Z B M B B B M S m 3   2 { %.' q ",
"Y a f  .%.) *   5 Z B B B Z B C B y h N Z N N Z B B B Z B h h B Z M Z B N N Z Z N y h B M B M B B B B Z m &   2 { %.' q ",
"Y a z  .$.) * X 5 B Z B B B B Z N h g N Z Z Z B M Z B Z N h y N Z Z N B Z C N Z B h h B Z B Z B Z M Z Z m &   2 { %.' q ",
"T a z  .%.) *   5 B B B B Z M Z B h h B Z B B B M Z B Z B h h N Z M B B Z B M Z N h h B Z B B B B B B B m &   2 { &.' q ",
"T a z  .$.) *   6 B S B Z N Z Z N h h N Z B Z B B B B Z N h y B Z B B Z B B B Z B y h N Z B Z B B B B S m &   2 { %.' q ",
"E p z  .%.) *   5 B B N N N B Z B h h N Z M B Z B Z B Z N h h B Z B Z B B B B Z N h h N Z B B Z B Z B Z m &   2 { %.' q ",
"Y r z  .$.) * X 6 Z A L L H Z B N h h B Z B B B B B B B B h h N Z B M B B Z B B B h h B Z B B B B B B B m &   2 { %.' q ",
"T a z  .%.) *   5 Z L U U K B N m y y N B B M B B B B Z N y h N Z B B Z Z C N Z N g h N Z B B B B B B Z M &   2 { %.' q ",
"T a z  .%.) *   5 Z L P I L A S A k k N B B Z B Z B B Z B h h B Z M B B N Z B Z N h h B Z B Z B Z B Z Z m &   2 { %.' q ",
"E a z  .%.) *   4 B L U L J H H H K H Z B B B B B Z B Z N h y B Z Z B Z C N N Z N h h N Z M B B B B B S m &   2 { &.' q ",
"f a z  .%.) *   3 B L U G V j j j t h N B B Z B B B M Z B h h N Z B B B Z N Z Z N h h B Z B Z B B B B Z m &   2 { %.' q ",
"E e z  .%.) * X 4 B L P I K Z Z B y h B Z B B M B B B Z N h h N M B N Z M B Z Z B h h N Z B B B B Z M Z m &   2 { %.' q ",
"T p z  .%.) *   5 B L U I K Z M N h h B Z Z B Z B Z M Z N h h B Z B Z B N Z N Z N h h N Z B Z B B B B Z m &   2 { %.' q ",
"T a z  .%.) *   5 B A A A A N Z B h g N Z N B B B B B Z N h h N Z B B Z Z B Z Z N h h N Z Z M B B Z B Z m &   2 { %.' q ",
"T a z  .$.) *   6 B B m m N Z Z N h h N Z Z B B B Z B Z B h h N Z M Z N B B B Z M h h N Z N Z B B B B B m &   2 { &.' q ",
"T a z  .%.) *   5 B Z B B B B Z N y h N Z B B Z Z B M Z B h y B Z B Z B Z B B Z N h h B Z B B B B B Z Z M &   2 { &.' q ",
"T a z | $._ *   6 B Z B B B B Z B h h B Z B B B B B B Z N h h N Z Z N B M B B Z N h y B Z B B Z B Z B Z m &   2 { %.' q ",
"E p z | %.) *   5 B Z B B Z B Z N h h N Z B B Z B B B Z N h h B Z M Z B B B B Z B h h N Z B B B B B B S m &   2 { %.' q ",
"Y r z ..$.) *   5 B Z B B B B Z B h h N Z M B B B Z B B B h h N Z N B B B Z M Z N y h B Z M Z B B B B Z m &   2 { %.' q ",
"T a z  .$.) *   6 B Z B B Z B Z B h h B Z Z B B B Z B Z B y h N Z M B B Z B B Z B h h N Z B B B Z M B Z m &   2 { %.' q ",
"T p z  .%.) * X 5 Z Z B B B B Z N h h N Z N Z B B B M Z N h h B Z Z N Z B B B Z N h h B Z B Z B B B B Z m &   2 { &.' q ",
"T a z  .$.) *   5 B Z B B B B Z B y g N Z N B Z B B B Z N h h N Z Z Z N Z B B Z N h h N Z N M B Z B B Z m &   2 [ &.' q ",
"E a z  .%.) *   6 Z Z Z B B B Z N h h N Z Z B M Z B B Z B h h B Z N Z Z B B B B B h g N Z Z N Z B B B B m &   1 { %.' q ",
"Y a z  .%.) *   6 B B B B Z B Z B h h N Z M B B Z N Z Z N g h N Z N Z Z N Z C Z N h h N B B M B B Z B Z N &   2 { %.' q ",
"Y a z  .@.) *   6 B Z B B B B M N h y B Z Z B Z B Z N Z B h y B Z Z N Z Z N N Z B h h B Z B Z B B B B Z N &   2 { %.' q ",
"Y p z  .%.) *   5 B Z Z B B B Z B h h N Z B B B Z N M Z N h h N Z Z N N N C C M B y h N Z B B B B B B Z m O   1 { &.' q ",
"E e z  .%.) * X 5 B Z B Z B Z Z N y h B Z Z N Z B B B Z N h h B Z N Z C Z Z N Z N h h B Z B Z B Z B Z B C A v : { %.' q ",
"T a z  .%.) *   5 B Z B B Z M Z B g h N Z N Z B Z B B Z N h h Z Z Z N Z N Z Z Z N h h N B C B B B B B N V U J : { %.' q ",
"T a z  .$.) *   5 M Z B B B B Z N h h B Z M N Z B B B Z N h h N Z N Z B Z N N Z N g h B Z Z B B B B B M Z K n - { %.' q ",
"T s z | $.) *   5 Z Z N B Z B Z N y h M Z Z Z N M B Z Z N h g N Z N M B Z Z Z Z N h h N B B B B B B Z Z m 3 . 1 { %.' % ",
"T a z ..*._ *   , C Z Z M M m A M h g m C m C Z C C m C M h g C C C C C m m M C N g g C C Z C C M B m C m +   < } *.] % ",
"T f Y ` [ ! e s l F F F F F F F F x x F F F F F F F F F F x x F F F F F F F F F F x x F F F F F F F F F D s r u ( [ ^ p ",
"T T Y i w d T T T T T T T T T T Y T T Y Y Y Y Y T T T Y Y T T Y Y T Y T T T T T T T T T T T T T T T T Y f E E z i # i T ",
"T T Y T R T Y T Y T T T T x T Y Y Y T T T T T Y T T T Y T T T z T Y Y Y z T T Y T Y Y T z T T Y Y T T T Y Y z Y Y E E f ",
"Y T Y Y x T T T T Y Y Y T Y T T Y T Y T T Y T T Y Y T T T T T T T T Y Y T Y T T T T Y Y T Y T T T T Y T f E s w #.=.O.@ "
};
