/* XPM */
static char *result[] = {
/* columns rows colors chars-per-pixel */
"60 60 196 2 ",
"   c #000000",
".  c #060807",
"X  c #190E0A",
"o  c #170907",
"O  c #1B1A00",
"+  c #1D110D",
"@  c #1C1C1D",
"#  c #1A1515",
"$  c #000016",
"%  c #290300",
"&  c #370800",
"*  c #2A1612",
"=  c #2B1A15",
"-  c #2F1D18",
";  c #221510",
":  c #311D18",
">  c #3D251E",
",  c #382316",
"<  c #3B270C",
"1  c #001131",
"2  c #211E21",
"3  c #01283A",
"4  c #143034",
"5  c #242425",
"6  c #2B2C2C",
"7  c #3D2924",
"8  c #322E32",
"9  c #2F3030",
"0  c #333435",
"q  c #363639",
"w  c #35393A",
"e  c #3B3B3C",
"r  c #3A3536",
"t  c #4F0000",
"y  c #6B1100",
"u  c #503C00",
"i  c #6E220A",
"p  c #5F1E23",
"a  c #422922",
"s  c #4A2D26",
"d  c #46302B",
"f  c #443A38",
"g  c #572820",
"h  c #682823",
"j  c #7A342D",
"k  c #76322A",
"l  c #644339",
"z  c #39004D",
"x  c #0B2243",
"c  c #3D3A41",
"v  c #2C3843",
"b  c #470A56",
"n  c #433E43",
"m  c #57006E",
"M  c #65007F",
"N  c #3E4143",
"B  c #434444",
"V  c #474649",
"C  c #48474B",
"Z  c #464A4B",
"A  c #4A4A4C",
"S  c #4D4341",
"D  c #4F5151",
"F  c #535455",
"G  c #555758",
"H  c #565959",
"J  c #5B5D5D",
"K  c #595454",
"L  c #4E4F50",
"P  c #734E43",
"I  c #785146",
"U  c #5C5F60",
"Y  c #5A6163",
"T  c #626364",
"R  c #676A6B",
"E  c #6A6B6D",
"W  c #67656A",
"Q  c #746E6D",
"!  c #6F6E71",
"~  c #737373",
"^  c #7B7C7C",
"/  c #797878",
"(  c #6E7172",
")  c #941300",
"_  c #9E382A",
"`  c #A03F2D",
"'  c #874237",
"]  c #9D453B",
"[  c #8C522C",
"{  c #A34234",
"}  c #8B5649",
"|  c #A95445",
" . c #B35A46",
".. c #9E7058",
"X. c #A8765D",
"o. c #B87957",
"O. c #A26E53",
"+. c #847D7C",
"@. c #A16F69",
"#. c #C5785D",
"$. c #C7724E",
"%. c #C77B62",
"&. c #BA8369",
"*. c #B68572",
"=. c #CB8568",
"-. c #D28668",
";. c #E39E7C",
":. c #E19A77",
">. c #E6A17E",
",. c #E9A27F",
"<. c #6A0084",
"1. c #6E0089",
"2. c #72008E",
"3. c #750092",
"4. c #790096",
"5. c #7C009A",
"6. c #7B7F80",
"7. c #8100A0",
"8. c #8B00AC",
"9. c #9200B3",
"0. c #9C00BD",
"q. c #9600BA",
"w. c #8D0BAD",
"e. c #9F00C4",
"r. c #A000C6",
"t. c #A400CB",
"y. c #AB00D4",
"u. c #B100DC",
"i. c #A228CC",
"p. c #A335CF",
"a. c #AF35DE",
"s. c #A925D5",
"d. c #B03AE0",
"f. c #A649D9",
"g. c #A853DE",
"h. c #AB5DE4",
"j. c #B45FEF",
"k. c #AB61E6",
"l. c #AD67EA",
"z. c #B276F5",
"x. c #B47DFB",
"c. c #B461F0",
"v. c #7E8283",
"b. c #7D8B8F",
"n. c #7E8D91",
"m. c #828384",
"M. c #85898A",
"N. c #888587",
"B. c #938B8B",
"V. c #8E9393",
"C. c #959292",
"Z. c #9D9B9B",
"A. c #999494",
"S. c #A19D9C",
"D. c #A58380",
"F. c #BDA18E",
"G. c #9CA1A3",
"H. c #97A1A3",
"J. c #A5A1A1",
"K. c #AAA3A3",
"L. c #ADA9A9",
"P. c #B1ADAE",
"I. c #B7B3B3",
"U. c #BCB9B9",
"Y. c #C99683",
"T. c #C69F92",
"R. c #D4A28E",
"E. c #E5B39C",
"W. c #F3BA9C",
"Q. c #C0BEBE",
"!. c #D8B9A6",
"~. c #E8B9A3",
"^. c #F3BFA2",
"/. c #F6C4A8",
"(. c #FACDB2",
"). c #B685FF",
"_. c #C080FF",
"`. c #C6C3C3",
"'. c #C9C6C6",
"]. c #CEC9C9",
"[. c #C4C9CA",
"{. c #D3CDCD",
"}. c #DCC8C7",
"|. c #D6D3D4",
" X c #DBD5D5",
".X c #DCDADA",
"XX c #D5DADC",
"oX c #FFDCC3",
"OX c #E1DFDF",
"+X c #FFE3C9",
"@X c #E6E3E3",
"#X c #F2EDED",
"$X c #F5F3F3",
"%X c #FDFDFD",
"&X c #F9F3F3",
"*X c None",
/* pixels */
"*X*X*X*X*X*X*X*X*X*X*X*X*X*X*X*X*X*X*X*X*X*X*X*X*X*X*X*X*X*X*X*X*X*X*X*X*X*X*X*X*X*X*X*X*X*X*X*X*X*X*X*X*X*X*X*X*X*X*X*X",
"*X*X*X*X*X*X*X*X*X*X*X*X*X*X*X*X*X*X*X*X*X*X*X*X*X*X*X*X*X*X*X*X*X*X*X*X*X*X*X*X*X*X*X*X*X*X*X*X*X*X*X*X*X*X*X*X*X*X*X*X",
"*X*X*X*X*X*X*X*X*X*X*X*X*X*X*X*X*X*X*X*X*X*X*X*X*X*X*X*X*X*X*X*X*X*X*X*X*X*X*X*X*X*X*X*X*X*X*X*X*X*X*X*X*X*X*X*X*X*X*X*X",
"*X*X*X*X*X*X*X*X*X*X*X*X*X*X*X*X*X*X*X*X*X*X*X*X*X*X*X*X*X*X*X*X*X*X*X*X*X*X*X*X*X*X*X*X*X*X*X*X*X*X*X*X*X*X*X*X*X*X*X*X",
"*X*X*X*X*X*X*X*X*X*X*X*X*X*X*X*X*X*X*X*X*X*X*X*X*X*X*X                *X*X*X*X*X*X*X*X*X*X*X*X*X*X*X*X*X*X*X*X*X*X*X*X*X",
"*X*X*X*X*X*X*X*X*X*X*X*X*X*X*X*X*X*X*X*X*X*X*X*X*X    @ 5 5 5 5 q A q     *X*X*X*X*X*X*X*X*X*X*X*X*X*X*X*X*X*X*X*X*X*X*X",
"*X*X*X*X*X*X*X*X*X*X*X*X*X*X*X*X*X*X*X*X*X*X*X*X  # e C V V A e 2 q A C e   *X*X*X*X*X*X*X*X*X*X*X*X*X*X*X*X*X*X*X*X*X*X",
"*X*X*X*X*X*X*X*X*X*X*X*X*X*X*X*X*X*X*X*X*X*X*X  R W B V V V V V C q 0 C C e   *X*X*X*X*X*X*X*X*X*X*X*X*X*X*X*X*X*X*X*X*X",
"*X*X*X*X*X*X*X*X*X*X*X*X*X*X*X*X*X*X*X*X*X*X  W m.U W m.W e E E B V V V B T !   *X*X*X*X*X*X*X*X*X*XB *X*X*X*X*X*X*X*X*X",
"*X*X*X*X*X*X*X*X*X*X*X*X*X*X*X*X*X*X*X*X*X  e C C C V V C q q A r r A e 0 C Z e   *X*X*X*X*X*X*X*XT J.0 *X*X*X*X*X*X*X*X",
"*X*X*X*X*X*X*X*X*X*X*X*X*X*X*X*X*X*X*X*X*X  e C V V V V C r q c 5 5 5 5 5 9 Z e   *X*X*X*X*X*X*X*XE '.5 *X*X*X*X*X*X*X*X",
"*X*X*X*X*X*X*X*X*X*X*X*X*X*X*X*X*X*X*X*X*X  e A 0 c q q A q e 3 O.,.R.=._ 3 B #   *X*X*X*X*X*X*XU U.%XZ *X*X*X*X*X*X*X*X",
"*X*X*X*X*X*X*X*X*X*X*X*X*X*X*X*X*X*X*X*X*X  e q 2 c q c e 2 $ X.,.;.:.>.&.$ 5 @   *X*X*X*X*X*X*XE .X%XZ *X*X*X*X*X*X*X*X",
"*X*X*X*X*X*X*X*X*X*X*X*X*X*X*X*X*X*X*X*X*X    @ 5 5 5 2 v } k ..,.>.;.>.=._   5   *X*X*X*X*X*XT L.S.Y *X*X*X*X*X*X*X*X*X",
"*X*X*X*X*X*X*X*X*X*X*X*X*X*X*X*X*X*X*X*X*X    2 5 5 5 2 3 *.X.p %.>.:.;.;.&.      *X*X*X*X*X*X~ .X$XZ *X*X*X*X*X*X*X*X*X",
"*X*X*X*X*X*X*X*X*X*X*X*X*X*X*X*X*X*X*X*X*X  *X  c x !.F.1 c       & X.=.&     *X  *X*X*X*X*XT Q.&XZ *X*X*X*X*X*X*X*X*X*X",
"*X*X*X*X*X*X*X*X*X*X*X*X*X*X*X*X*X*X*X*X*X*X*X*X  3 =...X.$.}.[.t #.^.(.#.&   *X*X*X*X*X*X*X~ .X$XZ *X*X*X*X*X*X*X*X*X*X",
"*X*X*X*X*X*X*X*X*X*X*X*X*X*X*X*X*X*X*X*X*X*X*X*X*X  ' h O./.oXoXoXoX(.+X/.-.] *X*X*X*X*X*XR L.S.Y *X*X*X*X*X*X*X*X*X*X*X",
"*X*X*X*X*X*X*X*X*X*X*X*X*X*X*X*X*X*X*X*X*X*X*X*Xr |.L.  h %.^.oXoXoXoXoX~.) *X*X*X*X*X*X*X/ OX$XN *X*X*X*X*X*X*X*X*X*X*X",
"*X*X*X*X*X*X*X*X*X*X*X*X*X*X*X*X*X*X*X*X*X*X*XK B. X&X{.! y #./.oXoXoX~.) *X*X*X*X*X*X*XT `.$XN *X*X*X*X*X*X*X*X*X*X*X*X",
"*X*X*X*X*X*X*X*X*X*X*X*X*X*X*X*X*X*X*X*X*X*Xe   '.].{.&X{.! i ` R.+X~.) *X*X*X*X*X*X*X*X6.OX$XN *X*X*X*X*X*X*X*X*X*X*X*X",
"*X*X*X*X*X*X*X*X*X*X*X*X*X*X*X*X*X*X*X*X*X# M.m.A 7 > > o +.A.w k  .| *X*X*X*X*X*X*X*XY L.Z.U *X*X*X*X*X*X*X*X*X*X*X*X*X",
"*X*X*X*X*X*X*X*X*X*X*X*X*X*X*X*X*X*X*X*X*Xe d % +. X#X#X$XP.      *X*X*X*X*X*X*X*X*X*X*..XXXZ *X*X*X*X*X*X*X*X*X*X*X*X*X",
"*X*X*X*X*X*X*X*X*X*X*X*X*X*X*X*X*X*X*X*X# N.G.J +. X#X#X$XU.  +.V.. *X*X*X*X*X*X*X*XE Q.XXA *X*X*X*X*X*X*X*X*X*X*X*X*X*X",
"*X*X*X*X*X*X*X*X*X*X*X*X*X*X*X*X*X*X*X*Xe & M.E : '.&X#X#X{.+.N.I.v.y  .*X*X*X*X*X*Xv..XXXZ *X*X*X*X*X*X*X*X*X*X*X*X*X*X",
"*X*X*X*X*X*X*X*X*X*X*X*X*X*X*X*X*X*X*X*X# M.v.n S B. X}.K.K. XU.  *.R.-.] | |  .*X~ L.Z.J *X*X*X*X*X*X*X*X*X*X*X*X*X*X*X",
"*X*X*X*X*X*X*X*X*X*X*X*X*X*X*X*X*X*X*X*Xe e = A.+.* Q.#X#X#X].{.I.[ ,.R.-.=.+X!.  ^ .X|.Z *X*X*X*X*X*X*X*X*X*X*X*X*X*X*X",
"*X*X*X*X*X*X*X*X*X*X*X*X*X*X*X*X*X*X*X*X*Xr {.&X'.Q   Q.&X].].&X|.*.{ o.>.>.*.Y V.C.Q.Z   *X*X*X*X*X*X*X*X*X*X*X*X*X*X*X",
"*X*X*X*X*X*X*X*X*X*X*X*X*X*X*X*X*X*X*X*X*Xr {.#X&XS.+.E I.{.{. XT.W.+X~.` ' g | @.H.V.G N B B *X*X*X*X*X*X*X*X*X*X*X*X*X",
"*X*X*X*X*X*X*X*X*X*X*X*X*X*X*X*X*X*X*X*X*XK C.OXS.o % B.+.  +.P.T.W.oX(.+X/.{ W.(.~.XX6.( ].C.0 B *X*X*X*X*X*X*X*X*X*X*X",
"*X*X*X*X*X*X*X*X*X*X*X*X*X*X*X*X*X*X*X    0 U E d B./             h %.>.:.:.W.oX(.Y.b.q C.OXK.'.A.0 B *X*X*X*X*X*X*X*X*X",
"*X*X*X*X*X*X*X*X*X*X*X*X*X*X*X*X*X*X  J V m.H.G.~ f 6     0 V e *X*X      } W.(.Y.n.6 *X*X( M.#XOX'.Z.w B *X*X*X*X*X*X*X",
"*X*X*X*X*X*X*X*X*X*X*X*X*X*X*X*X*X*X  J Z e B B 6 G G B e ^ H.H.^   *X*X*X*X    5 C *X*X*X*X*XE M.@XJ.].Z.e B *X*X*X*X*X",
"*X*X*X*X*X*X*X*X*X*X*X*X*X*X*X*X*X*X*X  2 6 6 6 5 N 5 / G.v.Y M.^   *X*X*X*X    *X*X*X*X*X*X*X*X*XE M.%X%X`.Z.e B *X*X*X",
"*X*X*X*X*X*X*X*X*X*X*X*X*X*X*X*X*XB B U R F @ 0 w 6.G.v.T R T M.v.  *X*X*X*X*X*X*X*X*X*X*X*X*X*X*X*X*XE v.%X%X'.J.N B *X",
"*X*X*X*X*X*X*X*X*X*X*X*X*X*X*XB N U R D B B 0 m.G.v.L H R R H B 0     *X*X*X*X*X*X*X*X*X*X*X*X*X*X*X*X*X*XE ^ %XJ.].J.B ",
"*X*X*X*X*X*X*X*X*X*X*X*X*X*XN T R D B B 0 m.G.^ T R F H H B 6   0 n   X : *X*X*X*X*X*X*X*X*X*X*X*X*X*X*X*X*X*XE ~ %X%X].",
"*X*X*X*X*X*X*X*X*X*X*X*X*X*X  e B B 0 M.G.v.A J R R G B 9   @ n K q s I l X *X*X*X*X*X*X*X*X*X*X*X*X*X*X*X*X*X*X*XR R B ",
"*X*X*X*X*X*X*X*X*X*X*X*X*X*X  e Z Z X H R R A Y G B 6     5 8 8 @ d I l 7 * *X*X*X*X*X*X*X*X*X*X*X*X*X*X*X*X*X*X*X*X*X*X",
"*X*X*X*X*X*X*X*X*X*X*X*X*X*X*X  e Z . H R R F B 6   *X*X*X      = s s s a * *X*X*X*X*X*X*X*X*X*X*X*X*X*X*X*X*X*X*X*X*X*X",
"*X*X*X*X*X*X*X*X*X*X*X*X*X*X*X      *X  e V 5     *X*X*X*X*X*X+ - - - > a = *X*X*X*Xt.*X*X*X*X*X*X*X*X*X*X*X*X*X*X*X*X*X",
"*X*X*X*X*X*X*X*X*X*X*X*X*X*X*X*X*X*X*X      > 7 X *X3.2.*X*X*X    X > s 7 = *X*X*X*Xy.t.e.*X*X*X*X*X*X*X*X*X*X*X*X*X*X*X",
"*X*X*Xe.*X*X*X*X2.*X*X*X*X*X*X*X*X3.b   > s s = *X*X2.7.*X*X*X*XX > s s a O *X2.*X*X*Xy.t.e.*X*X*X*X*X*X*X*X*X*X*X*X*X*X",
"*X*X*Xr.r.t.*X*X*X2.*X*X*X*X*X2.3.3.z < s s O m 3.2.2.2.2.2.3.m . > s s < b 3.3.2.*X*X8.t.*X*X*X*X*X*X*X*X*X*X*X*X*X*X*X",
"*X*X*Xe.x.i.t.*X*X2.5.*X2.3.5.*X*X  ; a s > X *X*X*X*X*X*X*X*X*X*X- s s s a O *X5.2.2.3.5.t.*X*X*Xy.r.*X*X*X*X*X*X*X*X*X",
"*X*X*X*Xe.).s.*X*X2.2.5.*X*X*X*X*X  > s s * *X*X*X*X*X*X*X*X*X*X*XX > s s a = *X*X*X*X*X5.5.t.e.*X_.e.*Xr.*X*X*X*X*X*X*X",
"*X*X*X*Xe.t.3.4.*X*X*X*X*X*X*X*X  7 s , - X *X*X*X*X*X*X*X*X*X*X*X*X- s s 7 = *X*X*X*X*X*X*X*X*Xa.).z.e.e.*X*X*X*X*X*X*X",
"*X*Xe.*X*Xt.5.*X*Xe.*X*X*X*X*X*X  7 s s * *X*X*X*X*X*X*X*X*X*X*X*X*X, s s a = *X*X*X*X*X*X*X*X*X*X*Xy.r.e.*X*X*X*X*X*X*X",
"*X*Xe.e.5.*X*X*X*Xe.y.*X*X*X*X*X  a s s * *X*X*X*X*Xe.y.e.e.y.r.*X*X= s a = = = *X*X*X*X*X*X*X*X*X*X*X*Xe.*X*X*X*X*X*X*X",
"*X*Xe.t.*X*X*X*X*Xr.r.y.*X*X*X*X        *X*X*X*X*X*X*X0.c.).h.t.*X*X= s s s s a = *X*Xe.*X*X*X*X*X*X*X*X*Xe.*X*X*X*X*X*X",
"*X*X*Xr.*X*X*X*X*Xe.x.p.y.*X*X*X*X*X*X*X*X*X*X*X*X*X*X*X0.j.).h.r.3.<.w.u I l I l . *Xu.e.*X*X*X*X*Xe.*X*Xr.*X*X*X*X*X*X",
"*X*X*Xe.*X3.*X*X*X*Xr.r.y.*X*X*X*X*X*X*X*X*X*X*X*X*X*X*X<.9.h.).k.0.e.t.7.    .     *X*X*X*X*X*X*X*Xy.e.r.e.*X*X*X*X*X*X",
"*X*X*X*Xr.3.t.*X*X*Xr.x.d.*X*X*X*X*X*X*X*X*X*X*X*X*X*X2.3.8.e.h.l.e.r.r.t.r.*X*X*X*X*X*X*Xe.*X*X*X*Xa.).e.*X*X*X*X*X*X*X",
"*X*X*X*X*Xe.e.t.2.q.z.).d.*X*X*X*X*X*X*X*X*X*X*X*X*X2.4.1.8.t.e.e.e.e.r.t.r.*Xr.*X*X*X*Xy.t.e.*X*Xy.i.).*X*X*X*X*X*X*X*X",
"*X*X*X*X*X*X*Xe.e.z.).a.*X*Xe.*X*X*X*X*X*Xe.*X*X*X*X*X<.9.k.k.0.e.e.0.g.z.r.t.r.*X*X*X*X8.t.e.*Xy.r.*X*X*X*X*X*X*X*X*X*X",
"*X*X*X*X*X*X*X*X*Xe.x.p.y.*Xr.*X*Xe.*X*X*Xr.u.*X*X*X*X<.9.h.).h.0.e.e.0.g.).l.0.e.t.e.*Xy.e.t.e.*X*X*X*X*X*X*X*X*X*X*X*X",
"*X*X*X*X*X*X*X*X*X*X*X*X*Xe.t.y.*X<.t.*X*X<.q.t.9.*X<.q.r.h.).).).).).k.0.f.).l.f.z.r.r.*X*X*X*X*X*X*X*X*X*X*X*X*X*X*X*X",
"*X*X*X*X*X*X*X*X*X*X*X*X*X*X*X*X*X*X*Xt.t.e.r.e.e.e.e.e.e.e.h.h.f.).k.e.t.e.*X*X*X*X*X*X*X*X*X*X*X*X*X*X*X*X*X*X*X*X*X*X",
"*X*X*X*X*X*X*X*X*X*X*X*X*X*X*X*X*X*X*X*X*X*X*X*X*X*X*X*X*X*X*X*X*X*X*X*X*X*X*X*X*X*X*X*X*X*X*X*X*X*X*X*X*X*X*X*X*X*X*X*X",
"*X*X*X*X*X*X*X*X*X*X*X*X*X*X*X*X*X*X*X*X*X*X*X*X*X*X*X*X*X*X*X*X*X*X*X*X*X*X*X*X*X*X*X*X*X*X*X*X*X*X*X*X*X*X*X*X*X*X*X*X"
};
