/* XPM */
static char *result[] = {
/* columns rows colors chars-per-pixel */
"60 60 37 1 ",
"  c black",
". c #2D1C17",
"X c #1B261D",
"o c #342215",
"O c #3E261E",
"+ c #252526",
"@ c #292A2A",
"# c #302D30",
"$ c #3C3A3A",
"% c #6A3906",
"& c #482C25",
"* c #593B25",
"= c #434444",
"- c #474649",
"; c #524A4A",
": c #4B4653",
"> c #524C52",
", c #724D42",
"< c #676262",
"1 c #656869",
"2 c #727272",
"3 c #A55244",
"4 c #E29D7B",
"5 c #72008E",
"6 c #7E7C82",
"7 c #9F00C5",
"8 c #B47FFC",
"9 c #908A8A",
"0 c #979C9D",
"q c #A7A3A3",
"w c #AFA8A8",
"e c #CDCACA",
"r c #FFDAC1",
"t c #E5E4E4",
"y c #F0EBEB",
"u c white",
"i c None",
/* pixels */
"iiiiiiiiiiiiiiiiiiiiiiiiiiiiiiiiiiiiiiiiiiiiiiiiiiiiiiiiiiii",
"iiiiiiiiiiiiiiiiiiiiiiiiiiiiiiiiiiiiiiiiiiiiiiiiiiiiiiiiiiii",
"iiiiiiiiiiiiiiiiiiiiiiiiiiiiiiiiiiiiiiiiiiiiiiiiiiiiiiiiiiii",
"iiiiiiiiiiiiiiiiiiiiiiiiiiiiiiiiiiiiiiiiiiiiiiiiiiiiiiiiiiii",
"iiiiiiiiiiiiiiiiiiiiiiiiiiiiiiiiiiiiiiiiiiiiiiiiiiiiiiiiiiii",
"iiiiiiiiiiiiiiiiiiiiiiiiiiiiiiiiiiiiiiiiiiiiiiiiiiiiiiiiiiii",
"iiiiiiiiiiiiiiiiiiiiiiiiiiiiiiiiiiiiiiiiiiiiiiiiiiiiiiiiiiii",
"iiiiiiiiiiiiiiiiiiiiiiiiiiiiiiiiiiiiiiiiiiiiiiiiiiiiiiiiiiii",
"iiiiiiiiiiiiiiiiiiiiiiiiiiiiiiiiiiiiiiiiiiiiiiiiiiiiiiiiiiii",
"iiiiiiiiiiiiiiiiiiiiiiiiiiiiiiiiiiiiiiiiiiiiiiiiiiiiiiiiiiii",
"iiiiiiiiiiiiiiiiiiiiiiiiiiiiiiiiiiiiiiiiiiiiiiiiiiiiiiiiiiii",
"iiiiiiiiiiiiiiiiiiiiiiiiiiiiiiiiiiiiiiiiiiiiiiiiiiiiiiiiiiii",
"iiiiiiiiiiiiiiiiiiiiiiiiiiiiiiiiiiiiiiiiiiiiiiiiiiiiiiiiiiii",
"iiiiiiiiiiiiiiiiiiiiiiiiiiiiiiiiiiii       iiiiiiiiiiiiiiiii",
"iiiiiiiiiiiiiiiiiiiiiiiiiiiiiiiiii  +++++--  iiiiiiiiiiiiiii",
"iiiiiiiiiiiiiiiiiiiiiiiiiiiiiiiii +-----++--- iiiiiiiiiiiiii",
"iiiiiiiiiiiiiiiiiiiiiiiiiiiiiii  6--------+--- iiiiiiiiiiiii",
"iiiiiiiiiiiiiiiiiiiiiiiiiiiiii -66-66--6------6 iiiiiiiiiiii",
"iiiiiiiiiiiiiiiiiiiiiiiiiiiii - ------+--+--+--- iiiiiiiiiii",
"iiiiiiiiiiiiiiiiiiiiiiiiiiii i --+----+-++++++-- iiiiiiiiiii",
"iiiiiiiiiiiiiiiiiiiiiiiiiiiii -++---++--+4443+-+ iiiiiiiiiii",
"iiiiiiiiiiiiiiiiiiiiiiiiiiii  ++-+-+++++44444+++ iiiiiiiiiii",
"iiiiiiiiiiiiiiiiiiiiiiiiiiii i  +++++:+444444+  iiiiiiiiiiii",
"iiiiiiiiiiiiiiiiiiiiiiiiiiiiii  +++++:+334444+  iiiiiiiiiiii",
"iiiiiiiiiiiiiiiiiiiiiiiiiiiiii i ::r+:    %4%   iiiiiiiiiiii",
"iiiiiiiiiiiiiiiiiiiiiiiiiiiiiiiii :4+43u 34r4% iiiiiiiiiiiii",
"iiiiiiiiiiiiiiiiiiiiiiiiiiiiiii  O 3 4rrrrrrr43iiiiiiiiiiiii",
"iiiiiiiiiiiiiiiiiiiiiiiiiiii<< wO$wX 34rrrrrr3iiiiiiiiiiiiii",
"iii7iiiiiiiiiiiiiiiiiiiiii<<www$00OwOOO4rrrr3iiiiiiiiiiiiiii",
"iii77iiiiiiiiiiiiiiiii=33<wwww$0000Owyy<3rr3iiiiiiiiiiiiiiii",
"iiii777iiiiiiiiiiiiii=344<ww<<$$0OO yyyy<33iiiiiiiiiiiiiiiii",
"iiii777iiiiiiiiiiiii===44<w<< ww$$ yyyyy<iiiiiiiiiiiiiiiiiii",
"iiiii77iiiiiiiiiii==qe1=3<<   wyw <wwwyw iiiiiiiiiiiiiiii7ii",
"iiiiii7iiiiiiiii==qe11=33  ii oo* wyyyw iiiiiiiiiiiiiiiii77i",
"iiiiiiiiiiiiii==qe11iiiiiiii oooo yyw<< iiiiiiiiiiiiiiii77ii",
"iiiiiiiiiiii==qe11iiiiiiii  =11oo w443 iiiiiiiiiiiiiiiii7iii",
"iiiiiiiiii==qe11iiiiiiiii 1=000==o 4443iiiiiiiiiiiiiiiiiiiii",
"iiiiiiii==qe117iiiiiiiiii 1@===@1=o34443=iiiiiiiiii7iiiiiiii",
"iiiiii==qe11i77iiiiiiii    @@@@@=@034rr30=iiiiiiiii77iiiiiii",
"iiiii=qe11iii777iiiiii= 00 99;==00=034r02==iiiiiiii777iiiiii",
"iiiiii==iiiii577iiii==0001 ;;=0001=1=3t0eeq==iiiii7777iiiiii",
"iiiiiiiiiiiii5577i==000=11 =000=11=1==011tqeq==ii77777iiiiii",
"iii7i7iiiiiii557==00011=1= ==11=11==  ==;11tteq==777iiiiiiii",
"iii7777iiiiiii5=0001=11==  ==11=1=  #>&>& i11tqeq==iiiiiiiii",
"iii77777iiiiiii ==11=1=   # =11=  ####,>,> 5511uueq==iiiiiii",
"iiii577757i55ii ==11=  i .. ==  ii ##&#&>> i55511uqeq==iiiii",
"ii7i5577555iiiii =1  ii ...   iiiii     .. iiiii711uueq==iii",
"ii775755iiiiiiii   iii &&.. iiiii  ...... iiiiiiii811uqeq==i",
"iii7785iiiiiiiiiiiiiii  .. iiiii ..&&..  iiiiiiiiii7711uueq=",
"iii578ii7iiiiiiiiiiiii    iiiiii .&&. iiiiiiiiiiiiii77711==i",
"iiii57ii7iiiiiiiiiiiii     iiiiii .,,, iiiiiiiiiiiii77iiiiii",
"iiii55i77iiiiiiiiiiiiiiii7iiiiiiii     iiii7iiiiiii787iiiiii",
"iiiii5i777iiiiiiiiiiiiiii77iiiiiiiiiiiiiiii77iiiii788iiiiiii",
"iiiiii5787iiii77iiiiiiii7777iiiiiiiiiiiiiii877iii778iiiiiiii",
"iiiiiiii77iiiii77iiiiiii7877iiiiiiiiiii7iii887i777iiiiiiiiii",
"iiiiiiiiii7777i787iiiiiii787iiii7iiiii787ii88777iiiiiiiiiiii",
"iiiiiiiiiiiiii778877iiiii7887iii77iii78877777iiiiiiiiiiiiiii",
"iiiiiiiiiiiiiiiiiiii777i777i777i7777778iiiiiiiiiiiiiiiiiiiii",
"iiiiiiiiiiiiiiiiiiiiiiiiiiiiiiiiiiiiiiiiiiiiiiiiiiiiiiiiiiii",
"iiiiiiiiiiiiiiiiiiiiiiiiiiiiiiiiiiiiiiiiiiiiiiiiiiiiiiiiiiii"
};
