/* XPM */
static char *result[] = {
/* columns rows colors chars-per-pixel */
"60 60 37 1 ",
"  c black",
". c #2D1C17",
"X c #1B261D",
"o c #342215",
"O c #3E261E",
"+ c #252526",
"@ c #292A2A",
"# c #302D30",
"$ c #3C3A3A",
"% c #6A3906",
"& c #482C25",
"* c #593B25",
"= c #434444",
"- c #474649",
"; c #524A4A",
": c #4B4653",
"> c #524C52",
", c #724D42",
"< c #676262",
"1 c #656869",
"2 c #727272",
"3 c #A55244",
"4 c #E29D7B",
"5 c #72008E",
"6 c #7E7C82",
"7 c #9F00C5",
"8 c #B47FFC",
"9 c #908A8A",
"0 c #979C9D",
"q c #A7A3A3",
"w c #AFA8A8",
"e c #CDCACA",
"r c #FFDAC1",
"t c #E5E4E4",
"y c #F0EBEB",
"u c white",
"i c None",
/* pixels */
"iiiiiiiiiiiiiiiiiiiiiiiiiiiiiiiiiiiiiiiiiiiiiiiiiiiiiiiiiiii",
"iiiiiiiiiiiiiiiiiiiiiiiiiiiiiiiiiiiiiiiiiiiiiiiiiiiiiiiiiiii",
"iiiiiiiiiiiiiiiiiiiiiiiiiiiiiiiiiiiiiiiiiiiiiiiiiiiiiiiiiiii",
"iiiiiiiiiiiiiiiiiiiiiiiiiiiiiiiiiiiiiiiiiiiiiiiiiiiiiiiiiiii",
"iiiiiiiiiiiiiiiiiiiiiiiiiiiiiiiiiiiiiiiiiiiiiiiiiiiiiiiiiiii",
"iiiiiiiiiiiiiiiiiiiiiiiiiiiiiiiiiiiiiiiiiiiiiiiiiiiiiiiiiiii",
"iiiiiiiiiiiiiiiiiiiiiiiiiiiiiiiiiiiiiiiiiiiiiiiiiiiiiiiiiiii",
"iiiiiiiiiiiiiiiiiiiiiiiiiiiiiiiiiiiiiiiiiiiiiiiiiiiiiiiiiiii",
"iiiiiiiiiiiiiiiiiiiiiiiiiiiiiiiiiiiiiiiiiiiiiiiiiiiiiiiiiiii",
"iiiiiiiiiiiiiiiiiiiiiiiiiiiiiiiiiiiiiiiiiiiiiiiiiiiiiiiiiiii",
"iiiiiiiiiiiiiiiiiiiiiiiiiiiiiiiiiiiiiiiiiiiiiiiiiiiiiiiiiiii",
"iiiiiiiiiiiiiiiiiiiiiiiiiiiiiiiiiiiiiiiiiiiiiiiiiiiiiiiiiiii",
"iiiiiiiiiiiiiiiiiiiiiiiiiiiiiiiiiiiiiiiiiiiiiiiiiiiiiiiiiiii",
"iiiiiiiiiiiiiiiii       iiiiiiiiiiiiiiiiiiiiiiiiiiiiiiiiiiii",
"iiiiiiiiiiiiiii  --+++++  iiiiiiiiiiiiiiiiiiiiiiiiiiiiiiiiii",
"iiiiiiiiiiiiii ---++-----+ iiiiiiiiiiiiiiiiiiiiiiiiiiiiiiiii",
"iiiiiiiiiiiii ---+--------6  iiiiiiiiiiiiiiiiiiiiiiiiiiiiiii",
"iiiiiiiiiiii 6------6--66-66- iiiiiiiiiiiiiiiiiiiiiiiiiiiiii",
"iiiiiiiiiii ---+--+--+------ - iiiiiiiiiiiiiiiiiiiiiiiiiiiii",
"iiiiiiiiiii --++++++-+----+-- i iiiiiiiiiiiiiiiiiiiiiiiiiiii",
"iiiiiiiiiii +-+3444+--++---++- iiiiiiiiiiiiiiiiiiiiiiiiiiiii",
"iiiiiiiiiii +++44444+++++-+-++  iiiiiiiiiiiiiiiiiiiiiiiiiiii",
"iiiiiiiiiiii  +444444+:+++++  i iiiiiiiiiiiiiiiiiiiiiiiiiiii",
"iiiiiiiiiiii  +444433+:+++++  iiiiiiiiiiiiiiiiiiiiiiiiiiiiii",
"iiiiiiiiiiii   %4%    :+r:: i iiiiiiiiiiiiiiiiiiiiiiiiiiiiii",
"iiiiiiiiiiiii %4r43 u34+4: iiiiiiiiiiiiiiiiiiiiiiiiiiiiiiiii",
"iiiiiiiiiiiii34rrrrrrr4 3 O  iiiiiiiiiiiiiiiiiiiiiiiiiiiiiii",
"iiiiiiiiiiiiii3rrrrrr43 Xw$Ow <<iiiiiiiiiiiiiiiiiiiiiiiiiiii",
"iiiiiiiiiiiiiii3rrrr4OOOwO00$www<<iiiiiiiiiiiiiiiiiiiiii7iii",
"iiiiiiiiiiiiiiii3rr3<yywO0000$wwww<33=iiiiiiiiiiiiiiiii77iii",
"iiiiiiiiiiiiiiiii33<yyyy OO0$$<<ww<443=iiiiiiiiiiiiii777iiii",
"iiiiiiiiiiiiiiiiiii<yyyyy $$ww <<w<44===iiiiiiiiiiiii777iiii",
"ii7iiiiiiiiiiiiiiii wywww< wyw   <<3=1eq==iiiiiiiiiii77iiiii",
"i77iiiiiiiiiiiiiiiii wyyyw *oo ii  33=11eq==iiiiiiiii7iiiiii",
"ii77iiiiiiiiiiiiiiii <<wyy oooo iiiiiiii11eq==iiiiiiiiiiiiii",
"iii7iiiiiiiiiiiiiiiii 344w oo11=  iiiiiiii11eq==iiiiiiiiiiii",
"iiiiiiiiiiiiiiiiiiiii3444 o==000=1 iiiiiiiii11eq==iiiiiiiiii",
"iiiiiiii7iiiiiiiiii=34443o=1@===@1 iiiiiiiiii711eq==iiiiiiii",
"iiiiiii77iiiiiiiii=03rr430@=@@@@@    iiiiiiii77i11eq==iiiiii",
"iiiiii777iiiiiiii==20r430=00==;99 00 =iiiiii777iii11eq=iiiii",
"iiiiii7777iiiii==qee0t3=1=1000=;; 1000==iiii775iiiii==iiiiii",
"iiiiii77777ii==qeqt110==1=11=000= 11=000==i7755iiiiiiiiiiiii",
"iiiiiiii777==qett11;==  ==11=11== =1=11000==755iiiiiii7i7iii",
"iiiiiiiii==qeqt11i &>&>#  =1=11==  ==11=1000=5iiiiiii7777iii",
"iiiiiii==qeuu1155 >,>,####  =11= #   =1=11== iiiiiii77777iii",
"iiiii==qequ11555i >>&#&## ii  == .. i  =11== ii55i757775iiii",
"iii==qeuu117iiiii ..     iiiii   ... ii  1= iiiii5557755i7ii",
"i==qequ118iiiiiiii ......  iiiii ..&& iii   iiiiiiii557577ii",
"=qeuu1177iiiiiiiiii  ..&&.. iiiii ..  iiiiiiiiiiiiiii5877iii",
"i==11777iiiiiiiiiiiiii .&&. iiiiii    iiiiiiiiiiiii7ii875iii",
"iiiiii77iiiiiiiiiiiii ,,,. iiiiii     iiiiiiiiiiiii7ii75iiii",
"iiiiii787iiiiiii7iiii     iiiiiiii7iiiiiiiiiiiiiiii77i55iiii",
"iiiiiii887iiiii77iiiiiiiiiiiiiiii77iiiiiiiiiiiiiii777i5iiiii",
"iiiiiiii877iii778iiiiiiiiiiiiiii7777iiiiiiii77iiii7875iiiiii",
"iiiiiiiiii777i788iii7iiiiiiiiiii7787iiiiiii77iiiii77iiiiiiii",
"iiiiiiiiiiii77788ii787iiiii7iiii787iiiiiii787i7777iiiiiiiiii",
"iiiiiiiiiiiiiii77777887iii77iii7887iiiii778877iiiiiiiiiiiiii",
"iiiiiiiiiiiiiiiiiiiii8777777i777i777i777iiiiiiiiiiiiiiiiiiii",
"iiiiiiiiiiiiiiiiiiiiiiiiiiiiiiiiiiiiiiiiiiiiiiiiiiiiiiiiiiii",
"iiiiiiiiiiiiiiiiiiiiiiiiiiiiiiiiiiiiiiiiiiiiiiiiiiiiiiiiiiii"
};
