/* XPM */
static char *_e3aea8ea5be4d32d5517850c9168cf0XZT5RtZBi2fkqMd9[] = {
/* columns rows colors chars-per-pixel */
"60 60 246 2 ",
"   c #020202",
".  c #0B0000",
"X  c #010D01",
"o  c #190507",
"O  c #041301",
"+  c #071606",
"@  c #19170E",
"#  c #020C15",
"$  c #0B1516",
"%  c #011C14",
"&  c #131C16",
"*  c #151B19",
"=  c #191A1A",
"-  c #27180C",
";  c #2F0F11",
":  c #251C13",
">  c #2B1C13",
",  c #251F1C",
"<  c #0B2506",
"1  c #19360A",
"2  c #04231E",
"3  c #09251C",
"4  c #1D241C",
"5  c #17281C",
"6  c #073518",
"7  c #1D341B",
"8  c #1C381A",
"9  c #212D05",
"0  c #273A05",
"q  c #26330C",
"w  c #2B2315",
"e  c #282813",
"r  c #23241A",
"t  c #2B261C",
"y  c #25281D",
"u  c #2C2B1C",
"i  c #332214",
"p  c #382817",
"a  c #332619",
"s  c #342A1B",
"d  c #3A2B1C",
"f  c #243E15",
"g  c #21351A",
"h  c #273A1B",
"j  c #373719",
"k  c #3B3B1D",
"l  c #002922",
"z  c #1C2521",
"x  c #142B24",
"c  c #1C2E25",
"v  c #063A29",
"b  c #173427",
"n  c #1D342C",
"m  c #033D38",
"M  c #173C32",
"N  c #262B26",
"B  c #252D24",
"V  c #2D2D22",
"C  c #342C23",
"Z  c #3C2E23",
"A  c #243522",
"S  c #2D3223",
"D  c #233C23",
"F  c #2C3D23",
"G  c #24362C",
"H  c #2C352B",
"J  c #25392C",
"K  c #2C3B2E",
"L  c #323224",
"P  c #3C3324",
"I  c #323C22",
"U  c #3D3A24",
"Y  c #34352B",
"T  c #3C352A",
"R  c #343A2D",
"E  c #3C3A2E",
"W  c #243B32",
"Q  c #2D3D33",
"!  c #343D31",
"~  c #3A3D32",
"^  c #383839",
"/  c #40281D",
"(  c #41351F",
")  c #403423",
"_  c #423B25",
"`  c #44352B",
"'  c #433C2B",
"]  c #493C2C",
"[  c #443E31",
"{  c #4A3E32",
"}  c #523F34",
"|  c #2A4A07",
" . c #24421C",
".. c #2B431D",
"X. c #2A4A19",
"o. c #344718",
"O. c #3C441C",
"+. c #3C481D",
"@. c #34521D",
"#. c #17453C",
"$. c #254422",
"%. c #2A4322",
"&. c #2C4A23",
"*. c #26462C",
"=. c #2A452E",
"-. c #344424",
";. c #3C4324",
":. c #344C22",
">. c #3A4C23",
",. c #34462B",
"<. c #3D442B",
"1. c #364D29",
"2. c #3D4A2B",
"3. c #2D5222",
"4. c #355324",
"5. c #3B5425",
"6. c #355A24",
"7. c #395B27",
"8. c #34522D",
"9. c #3B542B",
"0. c #345A2B",
"q. c #3C5A2A",
"w. c #254437",
"e. c #2C4135",
"r. c #2F4831",
"t. c #2D463A",
"y. c #334135",
"u. c #3C4235",
"i. c #354B35",
"p. c #3B4C34",
"a. c #354539",
"s. c #3B4539",
"d. c #344C3D",
"f. c #3C4B3C",
"g. c #225534",
"h. c #375437",
"j. c #3D5632",
"k. c #3E5A35",
"l. c #3B533D",
"z. c #3C5B3B",
"x. c #3E6136",
"c. c #414226",
"v. c #43432D",
"b. c #434B2B",
"n. c #474829",
"m. c #455526",
"M. c #41532C",
"N. c #444334",
"B. c #4B4434",
"V. c #444B33",
"C. c #4B4B34",
"Z. c #434539",
"A. c #4B4639",
"S. c #444B3C",
"D. c #4C4B3D",
"F. c #524435",
"G. c #524C35",
"H. c #524738",
"J. c #534C3C",
"K. c #5A4E3E",
"L. c #445335",
"P. c #4B5434",
"I. c #415A34",
"U. c #4C5936",
"Y. c #44543B",
"T. c #4B543C",
"R. c #445C3B",
"E. c #4C5A3C",
"W. c #55533D",
"Q. c #5A523F",
"!. c #525A3C",
"~. c #625A3F",
"^. c #43633D",
"/. c #1C384A",
"(. c #2C3C4C",
"). c #363F4C",
"_. c #354D41",
"`. c #3C4E41",
"'. c #37434B",
"]. c #345245",
"[. c #3C5242",
"{. c #3E5941",
"}. c #3B5549",
"|. c #3C5A4B",
" X c #3C5653",
".X c #3D6151",
"XX c #434D41",
"oX c #4C4D41",
"OX c #464849",
"+X c #544E41",
"@X c #594F40",
"#X c #584F4C",
"$X c #445244",
"%X c #4B5444",
"&X c #445C45",
"*X c #4C5B45",
"=X c #455649",
"-X c #4D5748",
";X c #445B4B",
":X c #4C5B4C",
">X c #555243",
",X c #5C5343",
"<X c #555B43",
"1X c #5A5946",
"2X c #515549",
"3X c #5B544B",
"4X c #535C4C",
"5X c #5B5B4B",
"6X c #474850",
"7X c #455F50",
"8X c #4A5E51",
"9X c #5C5652",
"0X c #515E51",
"qX c #615544",
"wX c #645C43",
"eX c #62574B",
"rX c #625B4C",
"tX c #456344",
"yX c #4C6446",
"uX c #456845",
"iX c #466249",
"pX c #4B644C",
"aX c #4B694E",
"sX c #55624D",
"dX c #5B604F",
"fX c #49744D",
"gX c #4B6453",
"hX c #486354",
"jX c #4D6A54",
"kX c #4D6A59",
"lX c #536353",
"zX c #5A6352",
"xX c #526A56",
"cX c #5F6855",
"vX c #526758",
"bX c #546C5B",
"nX c #5A6B5A",
"mX c #4A7455",
"MX c #4B7C53",
"NX c #54725D",
"BX c #5A715F",
"VX c #656143",
"CX c #606352",
"ZX c #546F60",
"AX c #557161",
"SX c #587562",
/* pixels */
"^.gXz k z.bXXX2 gX_.> 5.aXvXu I.gX= k z.vXd.n.wX>XqXwXqX,XQ.tXgXN j k.bXXX2 hX`.> W hXvXN w.8.& k x.nX`.0 kXd.> 5.aXvX5 ",
"vX;X  h R.N.! |.xXQ X h.S.H.>XQ.G.r 8 R.N.2.!.,X,XwXwX>X#X+XvX;X   .R.[ 1.uXvXQ X w.XXG.J.N D.s F I.T 1.iXvXQ O 9.S.' z.",
"c.P A z.NXs.e.=XZ R &.gXvXE lX4XF.W.^.bXe.Q :XK.3X#XoX+X'.(._ P A h.bXd.a.*Xk s :.aXxXa.+Xf.J.J.@XC.-.s.*X) Y &.xXjX3 ;X",
"I.-X8XG :XL p s.f.=X! { ,XJ.>XzXQ.D.dX=XS d ).#XOX(.'.).#XrXI.-XgXi.:X>.b.C.Y.+X,XP.,X0X%X,XG.~ Z.~ qX+XL.M.;Xn ]._.L ` ",
"AXbX=X: d d s ;XSX`.F.H.J.XX2XqXG.u.:XH.@X[ +X6X2XeXwXrX,XwXBXbXiX@.q.b.H.G.2X-XK.5X,XQ.u.>X5X>XZ.5X5X5X5Xb.=.R y.' { b.",
"0XjXq.p y %XM a.zX%XG.5X,X,XsX>X2X5X+X+XC.v.qX,XeX~.,XwX3X>X4XjX5.B.W.1X9XB.T.=XD.zX3X,X5X<X;X3X5X5X:XA.,XS.oXqXB.B.h  .",
"2.%Xb.E ;XxXf.x { ' J.zXXX2X5X5X3XdX+XoXC.:.Q.K.,XwXqXK.#X>XV.:X<X+XB.5X=XJ.9X5X3X3XQ.XXzX@XZ.5X4XoXH.=X9X5X-X4XZ.J.:.8 ",
"7.S.C V.jXxXa.v {.D.A.P.;XkXN.tX4X[ G.<X8Xw.4.sXoX{ P.dXzXv.7.Q.oXG.[ ,X-X].G.Q.xX5XS.S.E P.4X{ N.l.cX:Xp.<Xa.d.<XlX$X%.",
"jXjX* q 9.%XS.C.yX*.. @.E.%X .pXgX$ q q.-X+Xg ;X_.. @.Y.=X&.tX! A.5XzXK.5X:XD.qX5Xu.s.u.f aXjX# q q.-Xp.8.NXd.o X.Y.:X..",
"-XZ.O h.tXn.B.L C.L 1 tX:XL iX-Xs.+ 8.xXa.) K.s.x 8 yX:XC pX%XB.J.Z.5X,XD.A.,XS.+XG.J.B iX4XZ.+ 8.jX~ ,.pXoXN 1 tX:XV yX",
"o.' l.l.hX<.K.N.E XXr.hX:X* Z.O._ [.d.vXA.-XzXH.$Xr.hX:X* S.>.H.+XA.,X,XJ.=XdXK.! J.zXoXS.+._ [.d.xXXXgXvX:Xu.9 gX:X& Z.",
"aXvX8X* A.~ =XCXH.R.b Y _ d _ aXxXhX= v.F.oXS.B.pXt.Y ' d _ gX:XJ.[ oXS.,X5X1X,XJ.a.Q K.v.iXvXhX@ %XvXbXbXAXvXN E ' d P ",
"bXbXI.> ' B.Q 3X,X,XG.V =XR 1.bXbXk.w P A.u.4X2XL.D @ _ u 8.vXbXI.H.+XJ.>XqXS.A.zX2XB.L 9.bXkXI.> ! bXbXyXpXjX;.- P V 4.",
"A.aX5.] :X4XN.S.>XzXs.}.bXhX7 Z.gXm.a T N.[ S.Z.U.6 # ;XgX7 V.jX3.[ A.f.5X>X>X>X3X~ gXpX7 f.jX5.d g x.k.6.iXvXV.o ;XhX8 ",
"9.v.B.A.G $X,XQ.Z.oXlX].gXT.>.9.N.c.N.>X>X,Xs.S.G.4 =XbXD.5.5.' B.S.f.3X$XS.qXS.A.8XvXoX+.5.N.' <.0.5.6.7.M.A.N.@ hX-X-.",
"VXK.@XwXQ.>X,X!.E.,XzX4X>X@X,X>Xy.3XzXK.5X[.n.wXK.K.VX1X+X>X5X,XK.,XJ.5X4XK.>XlX].D.1XK.1XQ.3XsXD.f.,X1X>XJ.4X5Xp ;XlXg ",
",X,XqXwX>X3X#X4XkX%XQ.qXK.>XvX,X>X1X>XJ.[ 1.*XQ.@XwXwX+X3X,XlXhXR Q.,X4X,X,XS.oX3X,Xs.>XzX>X>X<X3X,X4X:X,XXXZ.>X1XD.E R.",
">XqX3X>XQ.qX,XC.K n N.>Xf.+XQ.D.3XdX>X|.d.!  X).'.OX+X(.OXJ.;.b.T.^.bXtXb.@XQ.W.zX%XK.>XD.f.3X3XzX,X~ ' zX4XT 3.xXjX5 ;X",
",XwX,X@XqXwX,X!.L.lXd.A.qX@X4Xf.>X1X%X|.G p ).).).)./.(.).'.k.%XgXj.pX3.t J.*X*X<X<.K.5Xi.>XdX3XD.Z.oX,X>X+XlXz.iXI.e Z ",
",X,X>X,XeXQ.~.cXZXjXx.v.>X,XzX,X5X&Xl H p j J.9X3X3X6X3X3X9XZXbX&Xh 7.k p yXNXjXj.N.B.4X3X,XK.Z.e.-.C._ pXAXjXR  .U p 2.",
",X#X,XqX,XwX3X>XvXtX@.=.gXzX@X3XkX0.c t XXw.A.9XwX~.3XwX3X@X4XkX9.k ,.XX=.p.bXtX;.o M 5X,X@X*XI B.3.{.*.p.vXuXO.o u.`.$.",
",X@XqXwXK.,X3Xn.S.Y.U zXbX:X!.T.%Xb.T ;XbXp.<.qX@XwXqXK.3X>Xb.$X2.P }.bXp.0 Y.L.U s.vX:XU.V.*Xb.P ;XnXf.0 D.T.c.s.xX:X..",
"E.4XN.J.dX,XQ.4XT.F.L l.NX;Xf 6.Y.C V.xXS.k <X@X,XJ.L.sXzX<.7.S.C 1XBX>XC.U.$XD.F.XXkX:Xf 0.S.C B.aXR...0.>.; P S.xX:X%.",
"jXhXX R dXD.A.5X5X,XA.5.Y.%X..jXkX$ q m.B.Z.oX,XN.{ 5.$X%X .aXkXV oXS.,X5X5X5X5X,Xo.f.-X%.pXkX2 - P 2.j X l.A.> 1 S.:X..",
"%Xs., T ' +X;X5X5X5XD.D $XL iX-XZ.O h.tXP.N.E dXXXV.pX*XS yX:Xu.t K.~ A.5X=XA.,XP.aX:Xu iX4Xu.z l.b.a ^ S.:XbX;Xk.*XV iX",
"O.j M.@X%X5X1X3X5X5XJ E oXx S.+._ d.l.gXn.2X-X3X1XsXbXbXn u.+.P =XqX>X:X5XG.>X5X<XxX}.2 S.+.P pXbXyXf ~ cXvXbXSX^.Y.z Z.",
"jXpX5.B $X5XQ.,XZ.A.:X5Xb.j _ pXvXgX= A.@X5X5X,X' oXnX=Xd _ aXvXjXH Q A.=XD.D.$X,Xs.% i ' pXS.bXNXfX+./ :XAX$Xn u.( P d ",
"xX^.J.D.J.qXS.=X4XK.5X~ C.L 1.bXbXI.w T A.' zX5Xy.S.[ C t 9.bXbX8.4 %X[ ~ +X0X}.G.J.T y 9.vXlXI.h.%.L ..,.W 3 w w P u 9.",
"C.B.~ zXK.5X4X>XqX5X4Xe.oX4Xb V.jX5.B.' y.4X5X~ }.rXa ;XgX7 Z.gX9.a S.4XK.D.%X>X>XE ;XgX7 Z.xX7.i Q vXd.e e % P t ;XgX7 ",
"5.,XZ.! oX}.3XK.,Xd.oXzX5X1X9.:.N.' ,X>X5X5Xu.s.,X>X8XbX%X@.5.B._ [ >X=XS.J.>XE B.lXbX%X@.:.N.P N.kXxX2.0.2.P P ;XbX%X:.",
"tXgXN j I.vXf.| xXd.> 9.aXlX7 ].hXB L ].vXS.l gX`.> I.gX8Xh k.;X* O.E.vX`...xXd.> I.pXlX7 ].hXu L ].vXY.l hXd.> 9.aXlXg ",
"xX;X  %.I.Z.,.iXvXQ O 9.S.~ j.xX;XO x s.B.9.{.xXs.: G.D.B.>X1XI.u A 9.[ :.z.vXQ O 9.S.~ z.xX;XX b _.N.2.pXbX! X 9.S.E k.",
"c.P A k.bXs.K *Xv.~ $.jXxX5 =XC.d I U.+XJ.C.U.{ C.T.>X:X>X>XlXA.J.oXS.` -.M.' L  .aXlX5 =XV.T H h.bXs.y.*Xd L &.gXjXA ;X",
"k.-X8XG 2XR H 2.xXkX! %XN.C _ X.B.K.f.$XA.~ A.K.W.i.+X' J.S.K.H `.5XE R >XW.!.L.g &XL.V N.@.L.&X=.4XP > V.R.xXe.`.^.q.` ",
"ZXNX=X> ( >Xd.e.iXu.Z.B.B.oX4X` 5X%Xs.zX,XD.Q u.>X5X3XD.>X,XD.K.5X;XB.oXS.J.K.{ G.!.X.K.,XU.X.6.9.J.K._ pXjXaXy.j 2.p b.",
"0XjX6.c.>X>XF.[ Y ~ s.:XA.s.lXXXZ.zX>XA.3X5XqXS.D.dX4XS.>X>XXX4X,XK.J.>X,XA.! 4X5X@X[ 2X,XZ.T I.P.A.5XY.Y.sX| ' I.5.a.$.",
"2.%XU.C.oX;XoX>X+XB.G.zXw.J.,XS.E qX>XA.5X:XD.qXJ.>XqX,XK.D.,X0XoX+XA.5X4X~.oX=X3XD.,X4X$XXX5XeXA.H 5X-XE +XoX>X;.M.-X%.",
"*.F.,Xs.] +XJ.D.=X5XoXK.Q A.[ S.5XZ.] oX4Xs.oXqXd.J b.sXzXb P.:XQ J.B.5XzX2XqX5X3Xi.pXzXc U.xXZ.C.{.zX>XF &X8XD.I 4X:X%.",
"hX4XR %XzXD.oXqX5X5XH S.A.J.%..XhX% : s.`.D.Q.5Xd.V C.%X$X..aXhXV @XT [ 5X5XA.:X5Xm.R.%X..aXhX# q q.=Xp.8.AXt.  @.E.-X..",
"*Xz.A.1X5XK.=X5XK.,XA.Q.dXu.*X4Xu.@ J.B.s 5X4X5XoX4X5X2XH pX-XN.< !.2X%XA.=X4XY b.yX=XL yX2XZ.+ 8.gX[ s.pXoXN 1 yX;XV pX",
"o.c.,XW.P.,XrX$XA.zX5XN.gXhXS.+._ $XS.4XG.5X1XZ.+Xf.oX>X3 s.+._ [.I 5X5XJ.:XrXA.g gX:X* S.+._ [.i.vXR N 2X:XH < jX:X& S.",
"aXgXzXQ.W.,XA.s.+X5X3X8XkX-X_ pXbX;Xz 5X,XZ.=X4X+XG.s.A.) U jXvXhX, P S.-XH K K.! b P d _ gXxXhX4 ] p.uXxXAXgXn E ' d P ",
"bXbXj.B.,X5X4X>XqXE A.nXY.- 8.bXxXR.N.P ,X@X1X3X@XzX2XL :XR.vXbXj.a t >X>XA.=X].A.u % y 2.bXbXk.> =.MXMXkXbXaX .$ P u 9.",
"D.gX@.e.zXS.XXdX4XJ.K.! ;XhXA <.I.W.K.-XzX>X@X,XXXM J.0XkXh V.jX5.s ~ A.[ wXZ.Z.,XH ;XhX7 V.jX>.V.MXMXMXMXsXQ.S O 4 }.A ",
"5.N.B.,XA.! ,Xf.XX5XqX:XkXD.4.5.B.D.T 3XrXA.XX,X8X>XJ.vXT.1.9.N.' S.sXJ.4X|.u.qXF.;XbXT.4.5.N._ D.bXmXaX,X>X,XE % 4 N.j.",
"x.gX>XQ.G.dX=XE qX4X-X5XE A.d.A.3XzXQ.K.K.>X0X4X,X5X`.J.W.zX,X>XzX>X,X%XXXA.XX,X@X,Xd.J.>Xa.K.>XJ.,X$XXXqX`.S.K.a.Z.4X<X",
"xX;Xt E.E.3X>X>X@X[ W A.>XQ.>XE +X+XqXoX[.qX>X>XqX4X2XK.,X3XJ.Q.,X+X4X4X>X>X,Xa.A.5X>X,X,X>X5X>XJ f.zXH.J.zXf.N.<Xs.D.^.",
"_ P A k.NXa.y.l.U 3XW.R ;XJ A.,X+XL G.5X:XJ.D.D.>X>XqX,XJ.>Xf.3X+XS.A.! ,XqX,X~ A.cX2X@XA.3XzXG.>XJ.+XD.v.Q.W.P.xXgXc =X",
"k.-X8XG :XC a V.L.lXQ {.R.e T I.J.-XA >XA.N.,XH.s.+XH.2XXX+XW.vXK.A.5X>Xa.A.K.J.+XH.a.>XE J.A.e.K.D.].sXU.Y.R.T.;XG r ` ",
"bXbX&Xr d d j pXZXxX!  .U i V.jXd.pX&.V F.G.5XXXp.W.~ :XJ.J.R A.J.d.:XF.F.t.;Xu.v.[ J.B.W.5X|.&Xw >XI.| aXNXxXK   @ i 2.",
"0XjXq.p y $X=.p.bXuXc.o u.[.$.4XNX7.i y `.s.oXbXtXO.' 2X`.>X,X}.W.K.A.$X1XD.bXuXO.` 4Xd. .8XbX7.s r XX=.p.vXtXO.o s.d.%.",
"2.%Xb.T ;XbXp.0 T.L.( s.xX:Xh 2.$Xb.T ;XbXp.0 S.Y.k s.kX:XE.!.-X>.[ nXvXi.0 Y.Y._ a.jXsXh 2.%Xb.P }.vXf.0 Y.Y.c.f.bXzX%.",
"q.XXC V.xX>XF.4.i.S.{ pXbX:X..6.S.C +XcXXXU yXE.} A.;XzX%X .6.S.C V.jX0X<.h.G.T P iXNX=X..6.S.T lXSX0Xv.g.C.` t d.[.t f ",
"jXkX* q m.3X5XF.2Xt.Z.m.L.=X..jXhXV >XA.4X=XrX=X+XqXN A.-X..aXkX$ q 5.1X+X+X>Xb o o.Y.%X .jXkXx _.}.=Xd.m `.G +     t f ",
"%XZ.O 8.gXzX5XoXD.>XR.yX;XL :X%XoX[ ! D.rX5X,XD.+XS.N.K.-XaX-XN.+ 8.gXS.A.H.u.V 1 iX;XV iX2XZ.  % #.m #.M J 4   L p s aX",
"o.' l.l.vXJ.K.;X:XcXd.;X:X& S.+.' ,XC.>XZ.K.,XQ.zX-XR 4XbX%Xo.' [.d.nXK C 4Xa.XXr.gX4X& S.+._ `.% v #.M % s ) & @ =Xc Z.",
"aXvXgX= A.<X=X%XA.B l ~ :XR ) aX8.P 5X4XK.A.|.5X3X1XG.R.xXN.pXxXgX= N.] v.t.|.vXe.Y ' d _ hXxXhX@ C l B U P ' : [.zXG.) ",
"bXvXk.a > >Xf.T 4X7XQ . N.S 9.xXk.A.3X5X>XQ.2X1X>XT D.,XI.q.vXbXI.a w P E A.zXaX-.- P t 9.bXbXI.s t t & o XX^.j gXA.C 2.",
"S.gX9.d Q vX4Xn.0XaX;.= =XhX7 N.D.N.B.a.zX,XS.=X5XJ.sX5XJ.g Z.jX9.s e.vX[.- =XtXc., ;XgX7 Z.aXM.p Q bXd.o :XuX;.H ;XpX7 ",
"5.N._ N.bX0Xb.q.b._ ) :XNXD.4.9.Q.>XA.t.,XsX4X>X,X,X3XH J.9.4.v._ N.bXlX2.3.2.' _ ;XNXD.:.5.v._ Z.vXlXb.7.b.' U =XbX$X:."
};
