/* XPM */
static char *_8a9aa36a036493c985d184821abb1320ZMGIBS0VmykIsuJ[] = {
/* columns rows colors chars-per-pixel */
"60 60 227 2 ",
"   c #020202",
".  c #090404",
"X  c #0C0A06",
"o  c #090609",
"O  c #0D0B09",
"+  c #120D0A",
"@  c #150E0A",
"#  c #15120E",
"$  c #1A150E",
"%  c #17190C",
"&  c #110D14",
"*  c #161411",
"=  c #1B1612",
"-  c #1D1914",
";  c #1C1B1A",
":  c #23170D",
">  c #221C15",
",  c #231E19",
"<  c #25221B",
"1  c #2C251A",
"2  c #2B231C",
"3  c #32281E",
"4  c #2A2521",
"5  c #282627",
"6  c #2D2A22",
"7  c #332C23",
"8  c #352C27",
"9  c #392E24",
"0  c #363124",
"q  c #3A3226",
"w  c #34322C",
"e  c #3C342B",
"r  c #3E3A2D",
"t  c #393734",
"y  c #3D3A34",
"u  c #42362B",
"i  c #433A2C",
"p  c #48392B",
"a  c #443C32",
"s  c #4B3F35",
"d  c #464133",
"f  c #4A4434",
"g  c #4A4638",
"h  c #4C443A",
"j  c #4E4A3C",
"k  c #524534",
"l  c #524936",
"z  c #51473C",
"x  c #534C3C",
"c  c #5C4E3C",
"v  c #53503C",
"b  c #59513F",
"n  c #63543E",
"m  c #4B4844",
"M  c #534D42",
"N  c #544D49",
"B  c #555144",
"V  c #5B5344",
"C  c #5E5946",
"Z  c #56524B",
"A  c #5C554B",
"S  c #5E594C",
"D  c #5B5553",
"F  c #595756",
"G  c #5D5952",
"H  c #615544",
"J  c #625946",
"K  c #645C4B",
"L  c #685A49",
"P  c #645C51",
"I  c #695F53",
"U  c #625D5B",
"Y  c #66614D",
"T  c #6A614D",
"R  c #72664E",
"E  c #666253",
"W  c #6C6454",
"Q  c #6E6954",
"!  c #66625C",
"~  c #6C655B",
"^  c #6D6A5B",
"/  c #736A55",
"(  c #756958",
")  c #736C5B",
"_  c #787157",
"`  c #77715E",
"'  c #7B735D",
"]  c #655F60",
"[  c #5F6060",
"{  c #6B6563",
"}  c #686666",
"|  c #6E6A62",
" . c #736E63",
".. c #756D67",
"X. c #757165",
"o. c #7B7463",
"O. c #7E7965",
"+. c #76706B",
"@. c #7B756C",
"#. c #7F7A6C",
"$. c #6D6A72",
"%. c #726E72",
"&. c #7B7572",
"*. c #7E7973",
"=. c #76737A",
"-. c #79777D",
";. c #827B65",
":. c #857A66",
">. c #837C6A",
",. c #847D73",
"<. c #867D75",
"1. c #837D7A",
"2. c #86816D",
"3. c #8C856B",
"4. c #8A826D",
"5. c #91866C",
"6. c #868172",
"7. c #8C8472",
"8. c #8D8974",
"9. c #86817B",
"0. c #8B847C",
"q. c #8E897B",
"w. c #948A77",
"e. c #938C75",
"r. c #938C7C",
"t. c #999076",
"y. c #96917C",
"u. c #9A937C",
"i. c #7D7B85",
"p. c #8C8683",
"a. c #8E8982",
"s. c #8C898A",
"d. c #938C84",
"f. c #948D89",
"g. c #968C88",
"h. c #959083",
"j. c #9B9483",
"k. c #9E9984",
"l. c #95918B",
"z. c #9B948C",
"x. c #9D998D",
"c. c #8C8C97",
"v. c #918E95",
"b. c #8E929B",
"n. c #969397",
"m. c #9B9692",
"M. c #9D9993",
"N. c #9D9A9D",
"B. c #A39883",
"V. c #A19B85",
"C. c #A49D8C",
"Z. c #A39C94",
"A. c #A59C99",
"S. c #A49C9A",
"D. c #A6A18E",
"F. c #AAA28E",
"G. c #A7A192",
"H. c #ABA493",
"J. c #AEA995",
"K. c #A5A19C",
"L. c #AAA39C",
"P. c #AEA99B",
"I. c #B3AC98",
"U. c #B3AC9C",
"Y. c #B6B19E",
"T. c #A19EA1",
"R. c #A5A3A2",
"E. c #ACA5A3",
"W. c #AEA9A2",
"Q. c #A9A6AA",
"!. c #ACAAAB",
"~. c #B4ABA7",
"^. c #B3ACA4",
"/. c #B4ADAA",
"(. c #B8AFAC",
"). c #B6B1A3",
"_. c #BAB3A5",
"`. c #B7B1AA",
"'. c #BBB4AB",
"]. c #BEB9AD",
"[. c #ADADB4",
"{. c #B1AEB2",
"}. c #B0AFB8",
"|. c #AFB1B7",
" X c #B3B2B5",
".X c #BCB5B2",
"XX c #BEBAB3",
"oX c #B4B3BB",
"OX c #B9B7BC",
"+X c #BCBABB",
"@X c #C4BAAB",
"#X c #C1BAAD",
"$X c #C4BBB5",
"%X c #C2BCB4",
"&X c #C4BCBA",
"*X c #CBC0AE",
"=X c #C5C1B6",
"-X c #CBC1B4",
";X c #C5C2BB",
":X c #CAC5BC",
">X c #CCC9BE",
",X c #B7BAC0",
"<X c #BCBBC3",
"1X c #C2BFC3",
"2X c #C4C2C4",
"3X c #CAC5C3",
"4X c #CDCAC4",
"5X c #C5C4C9",
"6X c #CAC7CA",
"7X c #CDCBCB",
"8X c #D1CCC5",
"9X c #D2CECB",
"0X c #D3D1CC",
"qX c #D7D1CC",
"wX c #C8C5D0",
"eX c #CCCBD2",
"rX c #D1CED2",
"tX c #CFD0D7",
"yX c #D4D2D3",
"uX c #DAD4D2",
"iX c #D5D5D9",
"pX c #D8D6D8",
"aX c #DAD9DD",
"sX c #DDDDE3",
"dX c #E2DFE9",
"fX c #DEE1E8",
"gX c #E2E1E8",
/* pixels */
"6X;X$X1X6X6XrX5Xc.,XwX,X5XdXdXfXfXdXdXgXfX+XwXiXQ.i.b.c.c.b.n.n.N.i.%..XrX&X*X-X-X>X>X8X0X0XK.} !.0X4X4X0X0X4X>X7X0XiX0X",
"5X%X1X6X9X9XyX6Xc.,XtX,XwXgXsXfXfXfXsXsXfX,XwXeX,X<X7XrX0X4X7X8X9XT.-.OXuX>X@X@X$X8X>X>X0X0XK.[ R.>X>X4X0X0X7X>X>X0X0X0X",
"5X2X6X9X9X6XyX6Xb.,XtX,X<XdXfXfXfXsXsXiXaXOX5XtX,X5XiXuXuXqXqXuXuX!.=.&XyX>X@X@X$X>X>X&X0X0XR.[ M.XX=X>X4X7X0X>X>X>X4X7X",
"7X6X6X9XeX6XiX6Xc.}.eX}.<XfXsXsXsXsXiXsXaX|.5XtX X<XrXrXqX8XqXuXuXT.=.OX9X:X@X-X>X8X8X8X4X0XR.[ M.].XX>X>X>X4X7X7X0X4X0X",
"wX5X3X6XrX7XiX5Xc.}.wX}.<XsXsXsXsXsXaXfXaX!.5X5X{.&X7X9XqX9X8XqX7XS.=. X8X@X*X>X8XqXqX4X0X8XK.[ x.].].=X=X=X4X7X0X0X7X7X",
"5X5X6XeXrX7XiX1Xi.[.wX}.<XsXiXsXsXiXaXaXpX!.2X2X!.OX7X9XqXqXuXqX3XS.%.(.3X-X-X-X8X>X8X4X0X4XM.F x.).).].].=X>X7X7X0X7X7X",
"1X6X6XrX6X6XyXOXi.}.wX[.,XsXiXiXiXiXyXyXyX!.<X5XQ.OXrXuXuXuXqXqX9XZ.$.(.8X:X>X:X=X:X>X>X>X4XN.[ M.).).=X>X;X,X>X4X7X7X7X",
"2X1X3X6X6X5X9X{.i.,XeX[.oXsXrXyXrXrX7XrX0XQ.2X2XQ.oXrXuXqX8X9XqX4Xm.{ `.>X:X8X>X=X=X:X=X>X>XM.F M.XX].=X>X>X;X;X2X7X7X7X",
"/.!.+X4X1X1XuX{.i.}.1X[. XtX7X7X7X7X3X7X6XR.2X2XR. X9XuXrX4X8X9X:Xl.} (.2X$X>X8X=X=X=X=X>X;Xv.m M.XX].=X=X=X;X2X4X4X4X7X",
"N.E.$X3X1X1XqX$X=.T.1XT.{.yX7X6X6X7X3X3X2XT.2X<XK. X7XqXqX9X8X8X:Xf.U W.:X%X-X>X>X=XXX=X;X;Xl.m M.=X=X].].].>X4X4X2X4X7X",
"!./..X&X&X1XrXoX=.Q.1XT.{.yX6X6X7X7X7X9X6XN.2X5XN./.2X9X9X9X>X>X;Xf.U P.%X'.].$X=X:X;X=X=X;Xl.y x.=X].Y.Y.].>X>X4X2X4X4X",
"(..X.X$X$X$X6X/.%.{.1XT.Q.2XXX2X4X3X7X9X4XN.5X5XN.R.&X7X8X>X>X>X=Xf.U K.]._.$X=X=X=X;X=X=X=Xl.t M.=XY.J.Y._.].;X>X4X2X2X",
"/./.'.$X$XOX1XT.$.{.5XN.S.$X'.$X2X1X:X4X3XN.2X5XT.E.&X3X>X>X>X8X;Xf.F L.]._.=X;X=X=X=X=X=X=Xl.y x.=X).F.Y.U._.].;X2X;X;X",
"A.A./..X.X$X&XS.$.{.1XN.R.3X$X$X$X.X$X1X6Xn.<X2XN.K..X$X:X>X:X:X%Xd.F A.]._.@X%X@X].=X].=X].d.w h.XXY.D.Y.Y.'.XX=X2X2X;X",
"Z.L.~..X.X$X&XT.$.{.1Xm.R.4X$X&X$X.X$X3X2Xn.<X2Xc.z.@X$X:X3X:X&X&Xf.G M._.).#X].]._.].#X@X].p.6 h.XXY.Y.].#X=XXX;X>X2X>X",
"E.^./..X.X.X&XA.%.{.1Xm.R.3X&X&X&X$X$X6X&Xl.+X+Xs.m.@X$X$X:X:X>X=Xf.F Z._.)._.]._.].=X]._.].q.; h.).Y.J.Y.#X=X=X2X;X>X;X",
"T.(.~.(./.(.$XA.%.{.&Xm.S.&X$X$X&X.X.X&XoXa..XXXs.Z.XX%X@X;X:X:X=Xl.Z Z.XX_.@X=X_._.]._._._.p.% 6.Y.J.H.U.).].=X;X3X=X=X",
"T.E.E.~./.{..XA.$.!..Xs.f.$X/.~.(..XXX$XE.9.oX'.l.K.'.'.$X-X&X;X+Xa.M T.XX)._._.Y.J.Y._.].].q.  X.F.J.H.P.U.].XX;X;X=X%X",
"E.E.E./.(./.$Xl.U E..Xp.m.&X'.~./.$X1X&XL.1./.!.f.A.^.`.$X$X$X-XXXa.m K.].).).P.U.).Y.).].].a.o ) k.u.D.G.).=XXXXX;X=X@X",
"E.E.~.Q.~./.(.g.{ L.(.p.A.&X.X(.E.(.$X&XW.9./.!.1.f.L.`.%X$X%X%XXXs.m M.].).^.)._._._.)._.'.q.& Q k.D.y.k.P.=X=XXX;X%X_.",
"Q.E.E./.E.P./.g.} S./.1.d.].'..X(.`.~.E.L.*.W.W.1.0.W.].XXXX]..X.Xp.m l._.)._._.]._.).).).Y.6.* Y u.V.k.D.F._._.).].].).",
"Q.E.E.Q.E.~.(.s.[ S.T.&.9.).'..XXX.X~.E.S...x.P.9.s.L.L.^.'.'.].`.p.y l.~.^.).Y.).P.P.Y.I.).q.5 X.V.V.V.u.D.Y.Y.Y._.`.].",
"E.A.S.S.P.E.E.p.U S.T.,.9.W.~./.(.'.~.~.E.+.z.x.*.l.K.S.A.~.`.`.~.1.y d.^.J.H.J.H.G.D.F.J._.a.w 2.F.D.u.D.F.F.Y.Y.Y.).).",
"T.S.A.A.E.E.E.p.F g.S.@.9.W.^.^.L.L.L.~.E.&.h.j.X.*.G.L.^.^.^.`.~.*.y q.J.H.F.H.H.H.F.F.I._.h.t 6.J.J.u.F.J.D.J.).).).`.",
"A.A.A.C.A.E.~.<.F f.x...9.W.P.L.A.Z.H.~.W.&.h.h.^ @.M.P.^.).~.`.).*.t 1.V.k.D.H.F.J.F.F.U.U.q.5 #.H.G.F.J.J.P.Y._.)._.'.",
"m.m.z.z.A.A.E.<.F z.z.~ 0.L.A.A.L.L.Z.^.R.&.B.h.X.9.G.L.W.^.^.~.P.*.t X.w.8.t.D.D.F.F.D.J.J.6.w +.G.x.D.J.G.P._.).`.`.'.",
"z.g.g.g.Z.A.E.&.F l.l.~ p.G.Z.A.E.^.Z.Z.K.&.Z.x...9.Z.P.P.P.H.H.H.@.w o.5.3.3.5.t.u.D.D.J.D.6.w #.D.D.D.U.P.W.`./.)._. X",
"z.f.g.g.z.A.A.+.Z l.h.| 1.x.H.L.R.E.K.j.a.+.K.M.| &.M.L.G.G.x.D.x...6 ' 3._ ;.5.w.t.u.D.D.V.>.5 +.G.D.G.^.^.).^.).).).).",
"z.g.g.z.Z.m.A...F z.l.!  .r.Z.A.L.E.L.C.#.^ K.x.! @.x.z.h.r.r.y.y.~ 4 o.3.L ;.5.3.5.u.u.C.V.4.5 X.C.D.Z.P.P.^.U.W.P.J.J.",
"w.p.g.z.z.z.z.{ F m.l.G I y.g.B.A.A.A.A.a.^ z.a.! @.d.r.8.7.7.8.6.S 5 o.5.R R 3.3.5.u.u.V.u.>.5 ~ u.V.C.G.Z.P.P.J.H.D.x.",
">.@.<.<.g.z.g.{ N v.g.A ) z.h.y.j.Z.C.Z.l.! *.X.G +.q.r.w.4.>.w.0.K 5 ) 3.;.;.3.3.5.u.t.5.e.X.5 Q y.u.j.D.C.G.H.D.D.D.x.",
"<.>.o.<.<.g.g.~ N d.p.K  .d.d.h.g.g.q.a.,.S X.) G | r.r.w.w.<.w.e.S 4 _ 3.;.5.5.t.t.t.5.2.e.O.5 Q j.u.h.k.C.D.Z.G.D.V.D.",
"p.p.<.<.<.p.g.] N 0.9.S ..q.p.d.g.g.r.7.) N 6.6.G ^ q.r.5.w.w.w.w.A 5 X.3.' 8.u.u.u.y.3.:.t.>., | C.k.h.j.k.x.V.D.V.u.V.",
"<.<.<.<.p.g.g.I N <.*.A X.r.0.0.q.g.g.r.o.N #.o.B K >.8.<.<.:.w.w.J < W ' 2.e.t.e.u.e.3.3.e.>.< ^ x.k.j.x.k.k.k.x.V.y.x.",
"@...@.<.<.w.p.U N 1.&.A ;.w.<.7.q.d.a.g.,.A @.~ d P O.:.:.:.;.3.7.C @ ^ 2.;.3.8.7.4.8.y.u.k.*.; ! l.j.h.V.k.V.k.h.u.k.V.",
"@...@.,.<.<.<.D N *...P <.w.<.<.0.q.,.q.>.P ,.^ h K ( ( ( ;.R ;.2.Z * +.8.' 3.8.2.2.3.e.u.u.X.# | l.j.y.k.j.k.k.j.j.k.V.",
";.&.:...;...;.N m @...D &.p.<.,.>.,.>.>.( G >.~ r V ( ( / _ T R O.M ; X.4._ O.3.2.2.4.w.y.e.Q O | l.j.y.k.y.y.u.u.k.j.y.",
"@.....~ I I | z h ..( N ..<.,.:.X.o.#.o.P Z #.W e h / / R R H c K d ; E ' Q ' 3.w.7.3.8.8.8.Q + | j.h.y.k.u.y.e.y.u.u.8.",
" ...| I D L I s t U D M { ,.,.,.@.( ..o.P B ;.~ 6 > k H n L L c V V q x Q Q _ 3.2.3.4.2.2.8.) O [ h.y.y.j.h.y.e.8.y.y.8.",
"I ( I I A A P s t P L z { ,.:...) H P W S M o.~ 7 > a k b n R R / ( x f T Q ' ' ( ;.4.7.4.7.) # E q.q.8.j.j.y.y.y.y.6.8.",
"Z P P P P K P h t I P h ] ;.....( V L ( H m ..W u p p 1 p c c k T / x h C Y _ / / O.:.:.7.7.) = S 8.6.2.q.y.6.2.e.r.0.8.",
"A P L H H L P a a { P a P { I ~  .I L I H s I H u p u 3 k H H k K / B d j K ' _ ' 2.:.;.;.:.E * Z >.2.2.2.2.2.2.q.r.q.7.",
"A L K V B H L e t I P a A I A P ) W L L N d K x 9 p 9 p k n n k n R x x K Y ;.' ( ;.;.' ' ' J # Z >.:.2.2.;.4.q.r.d.q.2.",
"V N N V c x V e t P Z u A I P I W K H J x f K h : p 9 9 d n k p c n f C Q b ) ' ( ' ' ' _ ) V # Z >.2.#.2.2.8.8.q.r.8.7.",
"z M s s z a s 8 a E Z e A I P I I b c V f f K f : p u @ u k p 3 l H p A C v K _ O.o.( ' ;.( J * M O.O.o.2.2.7.4.>.7.7.7.",
"s M N s z a a , y P M 8 N H H L K l i l f i K f : u u : @ 1 , 9 k l q V C j C ) O.;.' ' :.' V . j o.' ) O.#.O.#.>.>.2.6.",
"z M N M M M h 4 8 Z m 8 s M M H b l p a u i J f : 3 u u 3 3 u k k p q Z Y f x Q o.' ) T Q ( V   j ) ) ) O.o.Q Q o.>.>.>.",
"z z M s s z M 4 6 M h 8 s s c M b l f f i a V a $ $ 1 3 3 q p u 3 3 8 f v d V ) ( E Y L K ' E . B X._ ' #.o.` Q ` o.O.O.",
"z z m s u s s 4 6 M a 6 s d f x b l v b f r f e X . X # $ > ; $ $ + ; r r g Q _ Y J ^ ) E ) S * B O.O.o.>.O.o.O.o.o.O.>.",
"s z h u 8 a s , 4 h y 6 s s f f l x x b f 0 d 7 . X $ , , * : < 1 1 - 5 0 f Q ) K K ) ` Q Q C # f ^ Q ) o.O.O.O.O.O.O.;.",
"s s u 8 8 a a ; < a 9 4 a h d d f j x v r w r 6 . $ , 6 , @ : > 6 8 = 2 q j Y Y J W ) ` o.' C O r S T T W ' O.' X.O.O.O.",
"8 u u t 8 t a > - q 6 2 y d d g f f l l q 2 0 2 @ = > $ o       = 2 @ 2 r g C C S Q _ ) ) ` S O d K T T Y / o._ _ o.o.o.",
"9 u e e 9 e u , * 7 4 2 r d a d d d i d 0 < < - X = > .   o     O ; O = 1 0 d S K T ) Q W W B O m W E T T T / / ` ) Q o.",
"7 , 3 e u u t = = 8 4 , 8 e i a r i i 0 3 < < % X $ < $         O . = 4 1 % 1 B E V K Y Y K f   m ) ( J V V Y / ( E W ' ",
", : 1 8 7 q q * , e 6 = 6 e r e q i d r 3 - % O + > < % .       .   , q 6 < t V W S v V C Y h   j ) Q V J K T W W / Q ( ",
"> , < 2 1 7 7 # , 9 4 > 7 e e q q i i r w # X X + > > #             > 1 = # 4 B W T v C Y E M   h W T T W W W W W Q Q Y ",
"> > 1 > 1 3 3 @ > 8 2 > 7 0 w 0 0 e i i 7 * O @ @ $ $ +             # > +   * m K K Y K E W N . a K S J W W T W W W T J ",
"> , 1 , > 1 2 @ = 8 2 > 3 3 7 0 q i r e 6 # X # # @ + X             + = +   * m A V C K Y Q v   t Z x V K K K L T T K Y ",
", 2 1 1 1 > > X $ 7 , = 1 6 3 q e e 0 q 6 + . @ = # @ X             * ; O   = d v h l v C E x   r Z V l V H J J K J K W ",
"2 2 2 1 2 2 2 @ = 7 < = 3 7 7 7 0 q 0 0 2 O   + : : + o o           # ; O   + d V x d l V K h   a J V l b V K K Y K K W "
};
