/* XPM */
static char *c51f6626f1294353ff5c7dced445909a6nN45WLqoeTC85Ft[] = {
/* columns rows colors chars-per-pixel */
"40 60 110 2 ",
"   c None",
".  c #000006",
"X  c #000009",
"o  c #0C0308",
"O  c #1C0F09",
"+  c #2F1E0A",
"@  c #32220A",
"#  c #39270B",
"$  c #3C2B0C",
"%  c #432D0D",
"&  c #4D2A0E",
"*  c #52290E",
"=  c #4A350D",
"-  c #533C0E",
";  c #5F2B11",
":  c #553D10",
">  c #613410",
",  c #59400F",
"<  c #5D4310",
"1  c #5E4811",
"2  c #68410F",
"3  c #614511",
"4  c #6A4412",
"5  c #664A12",
"6  c #6B4E12",
"7  c #714811",
"8  c #6E5212",
"9  c #735514",
"0  c #795615",
"q  c #765814",
"w  c #7B5C15",
"e  c #7E6115",
"r  c #7D6C17",
"t  c #815F15",
"y  c #846316",
"u  c #896617",
"i  c #8D6A17",
"p  c #876B18",
"a  c #8E6B18",
"s  c #916C17",
"d  c #926D18",
"f  c #8F7019",
"g  c #967119",
"h  c #9B7419",
"j  c #917F1D",
"k  c #9E781A",
"l  c #A37B1A",
"z  c #A97F1B",
"x  c #A6821B",
"c  c #AC821C",
"v  c #A38A1D",
"b  c #B2861C",
"n  c #B68A1D",
"m  c #BB8E1D",
"M  c #A8911F",
"N  c #B3921E",
"B  c #BE911E",
"V  c #AF9B21",
"C  c #B7A523",
"Z  c #BEA722",
"A  c #C2941E",
"S  c #C49A1F",
"D  c #C9991F",
"F  c #C79720",
"G  c #C79C21",
"H  c #CC9B20",
"J  c #D19F20",
"K  c #CAA321",
"L  c #C1AF23",
"P  c #CCA922",
"I  c #D4A321",
"U  c #D9A522",
"Y  c #D3A922",
"T  c #DCA923",
"R  c #D7B023",
"E  c #DBB224",
"W  c #DCBD27",
"Q  c #E4B424",
"!  c #EDB525",
"~  c #EBB625",
"^  c #CFC129",
"/  c #DFC126",
"(  c #D3C728",
")  c #DED92C",
"_  c #E4C527",
"`  c #EFC127",
"'  c #E9C427",
"]  c #E5C928",
"[  c #E8CB29",
"{  c #FAC628",
"}  c #FECD28",
"|  c #E0DA2E",
" . c #E6DE2D",
".. c #F2D82B",
"X. c #FFD92B",
"o. c #F9DE2C",
"O. c #F4E42D",
"+. c #F9E42E",
"@. c #FFE52D",
"#. c #FFE82E",
"$. c #FBEC2E",
"%. c #F3ED31",
"&. c #FFEC30",
"*. c #F3F032",
"=. c #F8F331",
"-. c #FFFB31",
";. c #FFF932",
":. c #FFFB32",
">. c #FFFC31",
",. c #FFFB34",
/* pixels */
"                                                                                ",
"                            y y w q 9 a g y y 0                                 ",
"                      w y 6 5 5 9 u h n H T ! ~ P N a ;                         ",
"                  y w : # @ - 9 a z c m F U ~ { X.&.O.( v 7                     ",
"              y p < o O - w s g g s a a a d h b F Q o.:.=.^ p *                 ",
"            y w $ . = w s a u q q u d s h d 9 w y d b R +.,.) V 6               ",
"          u 9 . O 6 s s y         y s h h i       q e d m ] ;.*.C 4             ",
"        a q X @ w g a 8             w c d             w u l W ;.*.V >           ",
"      u q = o w l u               w y c x w             w u z _ :. .g           ",
"      g 8 . 6 h u 5           8 w a 9 y g u y w           u s N ..&.Z 6         ",
"      w - o a c y         3 a       % p v     9 y         5 y g R @.] u         ",
"    y 8 # < l l c I B   y d h   . . % G &.) j   a a   3 < 9 i u F } ` l         ",
"    a 9 $ w c k z F A z g z h 1 = y u u v M r 3 a h u y g s a y b Q T h         ",
"      w 3 e N b a p       l A     n H b 3 .     : <     s s s y l B z w         ",
"      g w 5 N B w           k g     6 e 9     < 5         9 u y l h u w         ",
"      l s 9 c G x w           a l b l s s w 5             s y w y q 6 9         ",
"        l h a B K k 0             g g n l               a y 8 6 - 6 9           ",
"        s l z c K K x y             6 n m           w s y 5 , $ - 6             ",
"          d b n n K Y B k y       3 u z I G     y u g w 3 = + : 8               ",
"            w g n D K U K G c g d s d h c c s a h u 9 1 = $ 8 w                 ",
"                k A I J I T T J D A n b l l z h u q 5 : 3 8 e                   ",
"                    c m I U I I J H A A m z h u w q q 8 w                       ",
"                        a l m A A m m c l h g s y q                             ",
"                              w g z l x c b l 0                                 ",
"                                a u < Z / B l                                   ",
"                                u q & P _ n k                                   ",
"                                g y 5 F U B b                                   ",
"                              w h w q B F b c y                                 ",
"                              g c w q B F c n k                                 ",
"                              a l y w A F z c y                                 ",
"                                l a w A B c l                                   ",
"                              h z t t B F z n k                                 ",
"                              g z y y A m z c a                                 ",
"                              9 l u y A m c l                                   ",
"                                h a a A A g u                                   ",
"                                  6 s A m 9                                     ",
"                                    u H b                                       ",
"                                    a H b                                       ",
"                                    s D b                                       ",
"                                    s D b                                       ",
"                                  = d D z                                       ",
"                          g l l l u l A n g z z l y                             ",
"                          m D B A h g A b b A A D n                             ",
"                        g A m n n d l A b l m m A m t                           ",
"                          l m m m g l m b l B m n g                             ",
"                            g m m h l A c l A b t                               ",
"                            s n m h l m b l A b                                 ",
"                          h m m m l l A c l B m b h                             ",
"                        n F B m m l z B z l m m m m g                           ",
"                        l m m m m l z m l l m m m n y                           ",
"                        n A A m m l c A l l A m B m g                           ",
"                        s l m A m l b m h h B m z a                             ",
"                              l m z z m d z m u                                 ",
"                                c z c z s d g                                   ",
"                                  g m g s u                                     ",
"                                  u c a 6 w                                     ",
"                                    a y X                                       ",
"                                      -                                         ",
"                                                                                ",
"                                                                                "
};
