/* XPM */
static char *result[] = {
/* columns rows colors chars-per-pixel */
"60 60 196 2 ",
"   c #000000",
".  c #060807",
"X  c #190E0A",
"o  c #170907",
"O  c #1B1A00",
"+  c #1D110D",
"@  c #1C1C1D",
"#  c #1A1515",
"$  c #000016",
"%  c #290300",
"&  c #370800",
"*  c #2A1612",
"=  c #2B1A15",
"-  c #2F1D18",
";  c #221510",
":  c #311D18",
">  c #3D251E",
",  c #382316",
"<  c #3B270C",
"1  c #001131",
"2  c #211E21",
"3  c #01283A",
"4  c #143034",
"5  c #242425",
"6  c #2B2C2C",
"7  c #3D2924",
"8  c #322E32",
"9  c #2F3030",
"0  c #333435",
"q  c #363639",
"w  c #35393A",
"e  c #3B3B3C",
"r  c #3A3536",
"t  c #4F0000",
"y  c #6B1100",
"u  c #503C00",
"i  c #6E220A",
"p  c #5F1E23",
"a  c #422922",
"s  c #4A2D26",
"d  c #46302B",
"f  c #443A38",
"g  c #572820",
"h  c #682823",
"j  c #7A342D",
"k  c #76322A",
"l  c #644339",
"z  c #39004D",
"x  c #0B2243",
"c  c #3D3A41",
"v  c #2C3843",
"b  c #470A56",
"n  c #433E43",
"m  c #57006E",
"M  c #65007F",
"N  c #3E4143",
"B  c #434444",
"V  c #474649",
"C  c #48474B",
"Z  c #464A4B",
"A  c #4A4A4C",
"S  c #4D4341",
"D  c #4F5151",
"F  c #535455",
"G  c #555758",
"H  c #565959",
"J  c #5B5D5D",
"K  c #595454",
"L  c #4E4F50",
"P  c #734E43",
"I  c #785146",
"U  c #5C5F60",
"Y  c #5A6163",
"T  c #626364",
"R  c #676A6B",
"E  c #6A6B6D",
"W  c #67656A",
"Q  c #746E6D",
"!  c #6F6E71",
"~  c #737373",
"^  c #7B7C7C",
"/  c #797878",
"(  c #6E7172",
")  c #941300",
"_  c #9E382A",
"`  c #A03F2D",
"'  c #874237",
"]  c #9D453B",
"[  c #8C522C",
"{  c #A34234",
"}  c #8B5649",
"|  c #A95445",
" . c #B35A46",
".. c #9E7058",
"X. c #A8765D",
"o. c #B87957",
"O. c #A26E53",
"+. c #847D7C",
"@. c #A16F69",
"#. c #C5785D",
"$. c #C7724E",
"%. c #C77B62",
"&. c #BA8369",
"*. c #B68572",
"=. c #CB8568",
"-. c #D28668",
";. c #E39E7C",
":. c #E19A77",
">. c #E6A17E",
",. c #E9A27F",
"<. c #6A0084",
"1. c #6E0089",
"2. c #72008E",
"3. c #750092",
"4. c #790096",
"5. c #7C009A",
"6. c #7B7F80",
"7. c #8100A0",
"8. c #8B00AC",
"9. c #9200B3",
"0. c #9C00BD",
"q. c #9600BA",
"w. c #8D0BAD",
"e. c #9F00C4",
"r. c #A000C6",
"t. c #A400CB",
"y. c #AB00D4",
"u. c #B100DC",
"i. c #A228CC",
"p. c #A335CF",
"a. c #AF35DE",
"s. c #A925D5",
"d. c #B03AE0",
"f. c #A649D9",
"g. c #A853DE",
"h. c #AB5DE4",
"j. c #B45FEF",
"k. c #AB61E6",
"l. c #AD67EA",
"z. c #B276F5",
"x. c #B47DFB",
"c. c #B461F0",
"v. c #7E8283",
"b. c #7D8B8F",
"n. c #7E8D91",
"m. c #828384",
"M. c #85898A",
"N. c #888587",
"B. c #938B8B",
"V. c #8E9393",
"C. c #959292",
"Z. c #9D9B9B",
"A. c #999494",
"S. c #A19D9C",
"D. c #A58380",
"F. c #BDA18E",
"G. c #9CA1A3",
"H. c #97A1A3",
"J. c #A5A1A1",
"K. c #AAA3A3",
"L. c #ADA9A9",
"P. c #B1ADAE",
"I. c #B7B3B3",
"U. c #BCB9B9",
"Y. c #C99683",
"T. c #C69F92",
"R. c #D4A28E",
"E. c #E5B39C",
"W. c #F3BA9C",
"Q. c #C0BEBE",
"!. c #D8B9A6",
"~. c #E8B9A3",
"^. c #F3BFA2",
"/. c #F6C4A8",
"(. c #FACDB2",
"). c #B685FF",
"_. c #C080FF",
"`. c #C6C3C3",
"'. c #C9C6C6",
"]. c #CEC9C9",
"[. c #C4C9CA",
"{. c #D3CDCD",
"}. c #DCC8C7",
"|. c #D6D3D4",
" X c #DBD5D5",
".X c #DCDADA",
"XX c #D5DADC",
"oX c #FFDCC3",
"OX c #E1DFDF",
"+X c #FFE3C9",
"@X c #E6E3E3",
"#X c #F2EDED",
"$X c #F5F3F3",
"%X c #FDFDFD",
"&X c #F9F3F3",
"*X c None",
/* pixels */
"*X*X*X*X*X*X*X*X*X*X*X*X*X*X*X*X*X*X*X*X*X*X*X*X*X*X*X*X*X*X*X*X*X*X*X*X*X*X*X*X*X*X*X*X*X*X*X*X*X*X*X*X*X*X*X*X*X*X*X*X",
"*X*X*X*X*X*X*X*X*X*X*X*X*X*X*X*X*X*X*X*X*X*X*X*X*X*X*X*X*X*X*X*X*X*X*X*X*X*X*X*X*X*X*X*X*X*X*X*X*X*X*X*X*X*X*X*X*X*X*X*X",
"*X*X*X*X*X*X*X*X*X*X*X*X*X*X*X*X*X*X*X*X*X*X*X*X*X*X*X*X*X*X*X*X*X*X*X*X*X*X*X*X*X*X*X*X*X*X*X*X*X*X*X*X*X*X*X*X*X*X*X*X",
"*X*X*X*X*X*X*X*X*X*X*X*X*X*X*X*X*X*X*X*X*X*X*X*X*X*X*X*X*X*X*X*X*X*X*X*X*X*X*X*X*X*X*X*X*X*X*X*X*X*X*X*X*X*X*X*X*X*X*X*X",
"*X*X*X*X*X*X*X*X*X*X*X*X*X*X*X*X*X*X*X*X*X*X*X*X*X                *X*X*X*X*X*X*X*X*X*X*X*X*X*X*X*X*X*X*X*X*X*X*X*X*X*X*X",
"*X*X*X*X*X*X*X*X*X*X*X*X*X*X*X*X*X*X*X*X*X*X*X    q A e 5 5 5 5 @     *X*X*X*X*X*X*X*X*X*X*X*X*X*X*X*X*X*X*X*X*X*X*X*X*X",
"*X*X*X*X*X*X*X*X*X*X*X*X*X*X*X*X*X*X*X*X*X*X  e A C q @ e A C C V e #   *X*X*X*X*X*X*X*X*X*X*X*X*X*X*X*X*X*X*X*X*X*X*X*X",
"*X*X*X*X*X*X*X*X*X*X*X*X*X*X*X*X*X*X*X*X*X  e C C 0 q C V V V V V B W E   *X*X*X*X*X*X*X*X*X*X*X*X*X*X*X*X*X*X*X*X*X*X*X",
"*X*X*X*X*X*X*X*X*XB *X*X*X*X*X*X*X*X*X*X  ! Y B C V V n E E e W m.W U N.W   *X*X*X*X*X*X*X*X*X*X*X*X*X*X*X*X*X*X*X*X*X*X",
"*X*X*X*X*X*X*X*X0 J.T *X*X*X*X*X*X*X*X  e A A 9 e A r f A q q C V V C V C e   *X*X*X*X*X*X*X*X*X*X*X*X*X*X*X*X*X*X*X*X*X",
"*X*X*X*X*X*X*X*X5 '.E *X*X*X*X*X*X*X*X  e A 0 5 5 5 5 5 e e q C C V V V C c   *X*X*X*X*X*X*X*X*X*X*X*X*X*X*X*X*X*X*X*X*X",
"*X*X*X*X*X*X*X*XA %XU.J *X*X*X*X*X*X*X  # B 3 _ -.;.R.O.3 r q A q q e 0 A e   *X*X*X*X*X*X*X*X*X*X*X*X*X*X*X*X*X*X*X*X*X",
"*X*X*X*X*X*X*X*XA $X.XE *X*X*X*X*X*X*X  2 5 $ &.,.;.;.,.X.$ 5 e e q c 2 q e   *X*X*X*X*X*X*X*X*X*X*X*X*X*X*X*X*X*X*X*X*X",
"*X*X*X*X*X*X*X*X*XY Z.L.T *X*X*X*X*X*X  5   j -.;.;.;.,...k } v 5 5 5 5 @     *X*X*X*X*X*X*X*X*X*X*X*X*X*X*X*X*X*X*X*X*X",
"*X*X*X*X*X*X*X*X*XA %XXX~ *X*X*X*X*X*X      &.,.;.;.R.%.h X.X.x 5 5 5 5 @     *X*X*X*X*X*X*X*X*X*X*X*X*X*X*X*X*X*X*X*X*X",
"*X*X*X*X*X*X*X*X*X*XN %XQ.T *X*X*X*X*X  *X    & =.o.%       c 1 F.!.x c   *X  *X*X*X*X*X*X*X*X*X*X*X*X*X*X*X*X*X*X*X*X*X",
"*X*X*X*X*X*X*X*X*X*XZ $XOX~ *X*X*X*X*X*X*X  & #.(./.%.t [.}.$.X...=.x   *X*X*X*X*X*X*X*X*X*X*X*X*X*X*X*X*X*X*X*X*X*X*X*X",
"*X*X*X*X*X*X*X*X*X*X*XY Z.L.R *X*X*X*X*X*X] -./.+X(.(.oXoX+X/.O.h '   *X*X*X*X*X*X*X*X*X*X*X*X*X*X*X*X*X*X*X*X*X*X*X*X*X",
"*X*X*X*X*X*X*X*X*X*X*XZ $X.X/ *X*X*X*X*X*X*X) ~.+XoX(.oXoX^.#.k   L.|.0 *X*X*X*X*X*X*X*X*X*X*X*X*X*X*X*X*X*X*X*X*X*X*X*X",
"*X*X*X*X*X*X*X*X*X*X*X*XN $X`.T *X*X*X*X*X*X*X) ~.oX+X+X^.#.y E {.&X XB.K *X*X*X*X*X*X*X*X*X*X*X*X*X*X*X*X*X*X*X*X*X*X*X",
"*X*X*X*X*X*X*X*X*X*X*X*XN $XOX^ *X*X*X*X*X*X*X*X) ~.+XR.{ i ! {.#X{.[.'.  e *X*X*X*X*X*X*X*X*X*X*X*X*X*X*X*X*X*X*X*X*X*X",
"*X*X*X*X*X*X*X*X*X*X*X*X*XY Z.L.E *X*X*X*X*X*X*X*X|  .k w A.+.o 7 7 7 L m.M.# *X*X*X*X*X*X*X*X*X*X*X*X*X*X*X*X*X*X*X*X*X",
"*X*X*X*X*X*X*X*X*X*X*X*X*XA |..X^ *X*X*X*X*X*X*X*X*X*X      P.$X#X#XXX*.% d e *X*X*X*X*X*X*X*X*X*X*X*X*X*X*X*X*X*X*X*X*X",
"*X*X*X*X*X*X*X*X*X*X*X*X*X*XA XXQ.E *X*X*X*X*X*X*X*X  B.+.  U.$X#X@X|.+.J G.M.# *X*X*X*X*X*X*X*X*X*X*X*X*X*X*X*X*X*X*X*X",
"*X*X*X*X*X*X*X*X*X*X*X*X*X*XA |..Xm.*X*X*X*X*X*X .y v.I.m.m.{.#X#X#X`.: W N.& e *X*X*X*X*X*X*X*X*X*X*X*X*X*X*X*X*X*X*X*X",
"*X*X*X*X*X*X*X*X*X*X*X*X*X*X*XU Z.L.~ *X| | | ] -.R.*.  I. XK.K.}.OXB.S f v.M.; *X*X*X*X*X*X*X*X*X*X*X*X*X*X*X*X*X*X*X*X",
"*X*X*X*X*X*X*X*X*X*X*X*X*X*X*XZ |..Xv.  !.+XY.=.,.,.[ I.{.].#X#X#X`.* +.A.2 e e *X*X*X*X*X*X*X*X*X*X*X*X*X*X*X*X*X*X*X*X",
"*X*X*X*X*X*X*X*X*X*X*X*X*X*X*X  Z U.C.V.Y &.>.>.#.{ *.{.&X].{.&XI.  Q }.&X{.r *X*X*X*X*X*X*X*X*X*X*X*X*X*X*X*X*X*X*X*X*X",
"*X*X*X*X*X*X*X*X*X*X*X*X*XB V N J V.H.@.] h [ _ E.+XW.T.|.{.{.I.W +.S.&X#X{.r *X*X*X*X*X*X*X*X*X*X*X*X*X*X*X*X*X*X*X*X*X",
"*X*X*X*X*X*X*X*X*X*X*XV 0 C.].( v.XXE.(.^.{ ~.+XoXoXW.T.P.+.  +.B.% o S.OXC.K *X*X*X*X*X*X*X*X*X*X*X*X*X*X*X*X*X*X*X*X*X",
"*X*X*X*X*X*X*X*X*XB 0 A.'.K.OXV.w b.Y.(.+XW.:.;.>.%.h             ^ B.f E U 0     *X*X*X*X*X*X*X*X*X*X*X*X*X*X*X*X*X*X*X",
"*X*X*X*X*X*X*XB w Z.`.@X#XM.E *X*X6 b.:.(.W.}       *X*Xe V 9     6 e ( G.Z.m.Z J   *X*X*X*X*X*X*X*X*X*X*X*X*X*X*X*X*X*X",
"*X*X*X*X*XV w Z.'.K.@XM.E *X*X*X*X*XZ 5     *X*X*X*X  ^ G.G./ w B H G 6 B B e B J   *X*X*X*X*X*X*X*X*X*X*X*X*X*X*X*X*X*X",
"*X*X*XB e Z.`.%X%XM.E *X*X*X*X*X*X*X*X*X    *X*X*X*X  v.M.Y m.G./ 5 e 5 6 6 6 2   *X*X*X*X*X*X*X*X*X*X*X*X*X*X*X*X*X*X*X",
"*XB N S.'.%X%Xv.E *X*X*X*X*X*X*X*X*X*X*X*X*X*X*X*X*X  ^ M.Y R T v.G.v.e 0 @ G R Y B B *X*X*X*X*X*X*X*X*X*X*X*X*X*X*X*X*X",
"B J.].J.%X^ ! *X*X*X*X*X*X*X*X*X*X*X*X*X*X*X*X*X*X    0 B H R R H L v.G.v.q B B D E U B B *X*X*X*X*X*X*X*X*X*X*X*X*X*X*X",
"].%X%X~ E *X*X*X*X*X*X*X*X*X*X*X*X*X*X*X*X*X*X= +   n q   9 B H H G R T 6.G.v.0 B B L E T N *X*X*X*X*X*X*X*X*X*X*X*X*X*X",
"B R R *X*X*X*X*X*X*X*X*X*X*X*X*X*X*X*X*X*X*XX l I s q F n @   9 B G R R J A 6.G.M.0 B B e   *X*X*X*X*X*X*X*X*X*X*X*X*X*X",
"*X*X*X*X*X*X*X*X*X*X*X*X*X*X*X*X*X*X*X*X*X*X= > l P s @ 8 8 2     6 B G J D R R G X Z B e   *X*X*X*X*X*X*X*X*X*X*X*X*X*X",
"*X*X*X*X*X*X*X*X*X*X*X*X*X*X*X*X*X*X*X*X*X*X= a s s s :       *X*X*X  6 B F R R H . Z e   *X*X*X*X*X*X*X*X*X*X*X*X*X*X*X",
"*X*X*X*X*X*X*X*X*X*X*X*X*X*X*X*X*Xe.*X*X*X*X= 7 > = - - + *X*X*X*X*X*X    5 Z q   *X      *X*X*X*X*X*X*X*X*X*X*X*X*X*X*X",
"*X*X*X*X*X*X*X*X*X*X*X*X*X*X*Xe.t.u.*X*X*X*X= a d > X     *X*X*X2.4.*XX 7 >       *X*X*X*X*X*X*X*X*X*X*X*X*X*X*X*X*X*X*X",
"*X*X*X*X*X*X*X*X*X*X*X*X*X*Xe.t.y.*X*X*X2.*XO s s s > X *X*X*X*X7.2.*X*X* s s >   b 3.*X*X*X*X*X*X*X*X2.*X*X*X*Xe.*X*X*X",
"*X*X*X*X*X*X*X*X*X*X*X*X*X*X*Xt.8.*X*X2.3.3.b < s s > . m 3.2.2.2.2.2.3.m O s s < z 3.3.3.*X*X*X*X*X2.*X*X*Xt.r.e.*X*X*X",
"*X*X*X*X*X*X*X*X*Xe.y.*X*X*Xt.7.2.2.2.5.*XO a s s s - *X*X*X*X*X*X*X*X*X*XX 7 s a ;   *X*X5.3.2.*X5.2.*X*Xt.i.x.e.*X*X*X",
"*X*X*X*X*X*X*Xe.*Xe._.*Xe.t.5.5.*X*X*X*X*X= a s s > X *X*X*X*X*X*X*X*X*X*X*X* s s >   *X*X*X*X*X5.2.2.*X*Xs.x.e.*X*X*X*X",
"*X*X*X*X*X*X*Xe.e.z.).a.*X*X*X*X*X*X*X*X*X= a s s - *X*X*X*X*X*X*X*X*X*X*X*XX - , s a   *X*X*X*X*X*X*X*X4.3.r.e.*X*X*X*X",
"*X*X*X*X*X*X*Xe.r.y.*X*X*X*X*X*X*X*X*X*X*X= a s s - *X*X*X*X*X*X*X*X*X*X*X*X*X* s s >   *X*X*X*X*X*Xt.*X*X5.t.*X*Xe.*X*X",
"*X*X*X*X*X*X*Xe.*X*X*X*X*X*X*X*X*X*X*X*X- - = 7 s , *X*Xe.y.r.r.y.e.*X*X*X*X*X* s s 7   *X*X*X*X*Xy.r.*X*X*X*X4.t.e.*X*X",
"*X*X*X*X*X*Xe.*X*X*X*X*X*X*X*X*Xe.*X*X= a s s s s - *X*Xt.k.).j.0.*X*X*X*X*X*X*X        *X*X*X*Xy.r.r.*X*X*X*X*Xt.e.*X*X",
"*X*X*X*X*X*Xr.*X*Xe.*X*X*X*X*Xe.u.*X. l P P P u w.M 3.r.h.).j.0.*X*X*X*X*X*X*X*X*X*X*X*X*X*X*Xy.p.x.0.*X*X*X*X*Xe.*X*X*X",
"*X*X*X*X*X*Xe.r.e.y.*X*X*X*X*X*X*X*X          5.r.e.e.k.).h.9.<.*X*X*X*X*X*X*X*X*X*X*X*X*X*X*Xy.t.r.*X*X*X*X2.*Xr.*X*X*X",
"*X*X*X*X*X*X*Xe.x.a.*X*X*X*Xe.*X*X*X*X*X*X*Xe.t.r.e.0.l.h.r.8.2.2.*X*X*X*X*X*X*X*X*X*X*X*X*X*Xd.x.e.*X*X*Xt.3.e.*X*X*X*X",
"*X*X*X*X*X*X*X*X).p.y.*X*Xe.t.y.*X*X*X*Xe.*Xt.t.e.e.r.e.r.t.8.1.4.2.*X*X*X*X*X*X*X*X*X*X*X*X*Xd.).z.q.3.t.e.e.*X*X*X*X*X",
"*X*X*X*X*X*X*X*X*X*Xr.y.*Xr.t.8.*X*X*X*Xr.t.e.l.g.e.e.r.0.k.k.9.<.*X*X*X*X*Xe.*X*X*X*X*X*Xe.*X*Xa.).z.e.e.*X*X*X*X*X*X*X",
"*X*X*X*X*X*X*X*X*X*X*X*Xe.t.e.y.*Xe.t.r.0.l.).g.e.e.e.e.h.).h.9.<.*X*X*X*Xu.e.*X*X*Xe.*X*Xr.*Xy.p.x.e.*X*X*X*X*X*X*X*X*X",
"*X*X*X*X*X*X*X*X*X*X*X*X*X*X*X*Xr.r.z.f.l.).f.0.l.).).x.x.).h.e.q.<.*X9.t.q.1.*X*Xt.<.*Xy.t.e.*X*X*X*X*X*X*X*X*X*X*X*X*X",
"*X*X*X*X*X*X*X*X*X*X*X*X*X*X*X*X*X*X*X*X*X*Xr.t.e.k.).g.h.k.e.e.e.e.e.e.e.e.e.t.r.*X*X*X*X*X*X*X*X*X*X*X*X*X*X*X*X*X*X*X",
"*X*X*X*X*X*X*X*X*X*X*X*X*X*X*X*X*X*X*X*X*X*X*X*X*X*X*X*X*X*X*X*X*X*X*X*X*X*X*X*X*X*X*X*X*X*X*X*X*X*X*X*X*X*X*X*X*X*X*X*X",
"*X*X*X*X*X*X*X*X*X*X*X*X*X*X*X*X*X*X*X*X*X*X*X*X*X*X*X*X*X*X*X*X*X*X*X*X*X*X*X*X*X*X*X*X*X*X*X*X*X*X*X*X*X*X*X*X*X*X*X*X"
};
