/* XPM */
static char *exit1638585200[] = {
/* columns rows colors chars-per-pixel */
"60 60 149 2 ",
"   c #040201",
".  c #030104",
"X  c #000306",
"o  c #0A0000",
"O  c #0D0000",
"+  c #00070A",
"@  c #000A0A",
"#  c #160300",
"$  c #1B0000",
"%  c #16010B",
"&  c #1B050B",
"*  c #1A070A",
"=  c #070D12",
"-  c #0F1016",
";  c #101017",
":  c #181416",
">  c #1B1517",
",  c #2D0000",
"<  c #310000",
"1  c #370000",
"2  c #390000",
"3  c #3E0000",
"4  c #380500",
"5  c #390600",
"6  c #3A0900",
"7  c #3B0B00",
"8  c #201303",
"9  c #2A1C00",
"0  c #21120E",
"q  c #22140E",
"w  c #201816",
"e  c #211816",
"r  c #22141A",
"t  c #24151E",
"y  c #24161F",
"u  c #382D0D",
"i  c #332919",
"p  c #3E341F",
"a  c #251620",
"s  c #2C1A25",
"d  c #2C1B27",
"f  c #2E1C25",
"g  c #2E1C27",
"h  c #2D1C28",
"j  c #2E1C28",
"k  c #301D27",
"l  c #301D29",
"z  c #301E29",
"x  c #311E2A",
"c  c #301E2B",
"v  c #2D0033",
"b  c #2E0034",
"n  c #2E0035",
"m  c #310638",
"M  c #310A39",
"N  c #320B39",
"B  c #34173C",
"V  c #351C3F",
"C  c #3D2227",
"Z  c #3D2625",
"A  c #33202B",
"S  c #34212C",
"D  c #3B2228",
"F  c #3C2328",
"G  c #3D2628",
"H  c #3F2828",
"J  c #36233E",
"K  c #36243E",
"L  c #38213C",
"P  c #3A213C",
"I  c #38253F",
"U  c #482627",
"Y  c #422927",
"T  c #472D26",
"R  c #492E23",
"E  c #492B27",
"W  c #492E27",
"Q  c #402828",
"!  c #402829",
"~  c #422A2A",
"^  c #432B2B",
"/  c #462C2C",
"(  c #492D28",
")  c #4B2F28",
"_  c #4B3025",
"`  c #493027",
"'  c #4C3025",
"]  c #4A3028",
"[  c #4B3028",
"{  c #4E322B",
"}  c #4F332B",
"|  c #4C3529",
" . c #4C3629",
".. c #4E3B2A",
"X. c #4E3C2A",
"o. c #503E2A",
"O. c #4E3934",
"+. c #554A25",
"@. c #564B26",
"#. c #53462C",
"$. c #54482C",
"%. c #574D2E",
"&. c #564E2E",
"*. c #57502E",
"=. c #57512E",
"-. c #382640",
";. c #392442",
":. c #392644",
">. c #3C2841",
",. c #3E2941",
"<. c #3B2844",
"1. c #3B2A46",
"2. c #3C2845",
"3. c #3C2A46",
"4. c #554542",
"5. c #564642",
"6. c #574845",
"7. c #4B4353",
"8. c #4D495A",
"9. c #524F5D",
"0. c #595B68",
"q. c #7C8383",
"w. c #7D8587",
"e. c #7F8687",
"r. c #7F8787",
"t. c #808787",
"y. c #808888",
"u. c #838B8B",
"i. c #829096",
"p. c #86959C",
"a. c #87979D",
"s. c #8A9BA1",
"d. c #94A5A7",
"f. c #96A6A8",
"g. c #96A7A9",
"h. c #9AACAD",
"j. c #A7BDC0",
"k. c #A7BEC0",
"l. c #A7BEC1",
"z. c #A8BEC0",
"x. c #AAC2C5",
"c. c #ACC3C6",
"v. c #ACC4C6",
"b. c #ACC4C7",
"n. c #AEC6C9",
"m. c #B0C9CC",
"M. c #B1CACE",
"N. c #B1CBCE",
"B. c #B6D1D4",
/* pixels */
"b.x.l.l.l.l.j.j.z.z.z.z.z.z.z.z.l.z.l.j.z.l.j.z.l.j.z.z.l.l.j.j.z.z.z.z.z.z.l.j.z.l.z.z.z.z.z.z.z.z.z.z.l.l.b.n.i.b N 3.",
"N.d.O., 6 6 7 7 6 6 6 6 7 7 6 6 6 7 7 7 6 6 6 7 7 7 6 6 7 7 7 7 6 5 6 6 6 6 6 6 5 5 5 5 5 5 5 5 5 5 5 6 2 , q.b.a.b N :.",
"N.g.6.$ X X @ @ + + + + @ @ + + + + @ @ + + + + @ @ + + + + @ @ + + + = ; ; - - : e > e e e e > ; > e @ # 1 t.b.a.b N 1.",
"N.d.5.,                                                             X y S A x x ^ } }  .} } [ ! c / ] &   < t.b.p.b N :.",
"N.d.5.$                                                               y A d j j F E ' ( ( _ ] ! g G ] p u 1 r.x.a.b N 3.",
"N.g.5.$                                                               y j j j j G ( [ ] ( ] _ H x G  .&.+.3 w.x.a.b N :.",
"N.g.5.$                                                               y A j j j G ] ] ( ] ] ] ! j C  .&.+.3 t.x.a.b N 1.",
"N.d.5.$                                                               a A j j j G ( ] ] ] ( [ ! g ! E i 9 1 t.b.p.v N 2.",
"N.f.5.,                                                               t j j j d G [ [ ] ] ] _ H x Y E *   < r.b.a.v N :.",
"N.f.5.$                                                               t x j d j G ( [ [ ( ( ] H g ! E 0 O < r.b.a.v N 3.",
"N.d.5.$                                                             X a x x j d G ] [ ( ] ] ] ! j Y E q o < t.b.a.b N :.",
"N.g.5.$                                                             X > x j j j G ( [ ] [ ( ] H A ! T q o < t.b.a.b N :.",
"N.g.5.$                                                               t x j j j G ] [ ( ] ] ] Y d H T 0 o < w.b.a.b N :.",
"N.d.5.$                                                               y x j j j G ] [ [ ( ] [ ! A H T 0 o < w.n.a.b N 3.",
"N.d.5.$                                                               y x x x j G ] [ ] ( ] ] Y j ^ E 0 o < u.b.a.b N :.",
"N.g.5.,                                                               y x g j j G [ [ ( ] ] ] ! j H _ 0 o < r.x.a.b N 1.",
"N.d.5.$                                                               t j j d j F ( ] ] ] ( [ ! A H E 0 o < w.n.p.b N :.",
"N.g.5.$                                                               t x j j d H ] ] ] ] ( [ ! d Y T 0 o < w.c.a.b N 1.",
"N.g.5.$                                                             X a x x j j G ( ] ( ] ] _ H x H E q o < r.c.a.b N :.",
"N.d.5.$                                                             X > x j j d G ] [ ] ( ] ] ! A H E 0 O < r.x.a.b N 1.",
"N.f.5.,                                                               y A j d j G [ [ ] ( [ ] ! g ! ( q o < u.n.a.b N 1.",
"N.f.5.$                                                               y j c j j G ] [ [ ( ] ] ! j H E q O < r.x.a.b N :.",
"N.d.5.$                                                               y A j j j G ] [ ( [ [ [ ! j ! T q o < y.x.p.b N :.",
"N.g.5.$                                                               y A j j j G ( [ ] ] ( [ ! A H E 0 o < r.n.a.b N 3.",
"N.g.5.$                                                               t j j j d G [ [ ] ] ] ] H g ! T 0 o < r.b.a.b N :.",
"N.d.5.$                                                               t x j d j G ( [ [ ( ( ] H A H T 0 o < r.b.a.b N 1.",
"N.d.5.$                                                             X a x x j d G ] [ ( [ ] ] ! j ~ E q o < r.b.a.b N 3.",
"N.g.5.,                                                             X > x j j j G ( [ ] [ ( _ H j H _ q o < r.b.p.b N :.",
"N.d.5.$                                                               t j j j j G ] [ ( ] ] ] ! g ! E 0 o 1 r.b.a.b N 3.",
"N.g.5.$                                                               y A j j j G [ [ [ ( ] ] H A H T 0 o < r.b.a.b N :.",
"N.g.5.$                                                               y x x x g G ( ( ( ] ] _ H g ! E q o < r.x.a.b N :.",
"N.d.5.$                                                               y x j j j G [  . .] ] ] H A ! E 0 o < r.b.a.b N 3.",
"N.f.5.,                                                               t x x j j F ] $.=...( ] H j H ] 0 o < r.b.p.b N <.",
"N.f.5.$                                                               t j j j j F ] $.&. .U ( H x H ( q o < r.b.p.b N 3.",
"N.d.5.$                                                               t x j j j F ] #.=.$.o. .H A H T 0 o < r.b.a.v N <.",
"N.g.5.$                                                               t x j j g F ] #.=.$.o.( ! d H T 0 o < r.n.a.v N :.",
"N.g.5.$                                                             . a x x j j F ] $.&. .U [ ! j ~ E 0 o < r.b.a.v N :.",
"N.d.5.$                                                             X > x j j j F ] $.=.X.E _ ! z Y _ q o < r.b.a.b N :.",
"N.d.5.$                                                               a x j g j F ] $.=.X.E [ ! g ! E 0 o < r.b.a.b N :.",
"N.g.5.,                                                               t x x j j G ( [ ] ] ( ] ! x ! E 0 O < t.b.a.b N 1.",
"N.d.5.$                                                               y A j j d G ] ) ( [ ] [ ! j ! ( q o < t.b.a.b N :.",
"N.g.5.$                                                               a j A d j G ( [ ] ( [ ( Y j ! ( q o < w.b.a.v N 3.",
"N.g.5.$                                                               y A j j d G ] [ [ ] ] ] ! x H T 0 o < u.b.a.b N :.",
"N.d.5.$                                                               y A j d j G ] [ ( ( ( ] Y g ! T 0 o < t.b.a.b N :.",
"N.f.5.,                                                               y x x g j G ] [ ( ] ] ] ! A H T q o < w.c.a.b N 3.",
"N.f.5.$                                                               y x g g j G [ [ ] ] ( ] Y g ! E q o < t.x.a.b N :.",
"N.d.5.$                                                               t x x j j G ( ] [ ] ( ] ! A H T 0 o < t.n.a.b N :.",
"N.g.5.$                                                               y c j j j G ] ] ( ] ] _ H j H E 0 o 2 t.b.a.v N 2.",
"N.g.5.$                                                             X t x l j j G ] [ ] ] ( ] ! j ! E q o < r.b.a.b N 3.",
"N.d.5.$                                                             X > x x j j G ] [ ( ] [ _ ! A ! T q o < r.b.a.b N :.",
"N.d.5.,                                                               t x j j j G ( [ [ ( ( [ ! g ! _ q O < r.b.a.b N <.",
"N.g.5.$                                                               y x j j j G ] [ ( [ ] [ ! x H E *   < r.b.a.b N :.",
"N.d.5.$                                                               t x g g j G ( [ ] ] ( _ H x ! ( i 9 < r.b.a.b N 3.",
"N.g.5.$                                                               y x x j j G ] [ [ ] ] ] ! g G  .%.+.3 t.x.a.b N :.",
"N.g.5.$                                                               a x x d j G [ [ ] ( ] ] ! x C  .&.@.3 w.x.a.b N <.",
"N.d.5.$                                                               y x j j d G ( [ [ ( ] ] ! k G _ p u 2 w.b.a.b N :.",
"N.d.5.,     X   X   X X   X X     X   X X   X   X   X X   X X       X t x k g g Z E _ ] ( ] ] ! j ! E %   < y.x.p.v N 3.",
"B.h.5.$                                                               r k g g s Z E ' ' / { ' ! g Y R 8   < u.N.s.v m :.",
"0.9.1.J J K J J K J J J I J J J J J J J I J J J J J J J I J J J K K J :.I :.:.:.<.<.<.,.<./ ,.I :.I <.I I P 7.0.8.<.:.<.",
"v B :.3.2.2.<.3.1.1.:.3.3.3.<.3.1.1.:.3.3.3.<.3.1.1.:.3.3.3.<.3.3.:.:.1.3.<.3.<.3.<.3.3.<.3.<.:.I 3.3.<.,.3.V b B 3.3.I "
};
